<?xml version="1.0" encoding="UTF-8"?>
<svg xmlns="http://www.w3.org/2000/svg" xmlns:xlink="http://www.w3.org/1999/xlink" width="20pt" height="20pt" viewBox="0 0 20 20" version="1.1">
<g id="surface1">
<path style=" stroke:none;fill-rule:nonzero;fill:rgb(81.960784%,77.254902%,51.764706%);fill-opacity:1;" d="M 0.390625 10 L 19.609375 10 L 19.609375 19.609375 L 0.390625 19.609375 Z M 0.390625 10 "/>
<path style=" stroke:none;fill-rule:nonzero;fill:rgb(18.823529%,60%,35.686275%);fill-opacity:1;" d="M 16.277344 9.878906 C 16.351562 9.757812 16.417969 9.628906 16.464844 9.492188 C 16.585938 9.515625 16.707031 9.527344 16.832031 9.527344 C 17.898438 9.527344 18.765625 8.660156 18.765625 7.59375 C 18.765625 6.6875 18.144531 5.929688 17.304688 5.71875 C 17.546875 5.394531 17.6875 4.996094 17.6875 4.5625 C 17.6875 3.496094 16.820312 2.628906 15.753906 2.628906 C 15.320312 2.628906 14.917969 2.773438 14.59375 3.015625 C 14.183594 2.65625 13.648438 2.433594 13.058594 2.433594 C 12.921875 2.433594 12.785156 2.445312 12.652344 2.46875 C 12.386719 1.296875 11.339844 0.390625 10.085938 0.390625 C 8.941406 0.390625 7.964844 1.125 7.605469 2.144531 C 7.433594 2.113281 7.261719 2.09375 7.082031 2.09375 C 5.859375 2.09375 4.832031 2.925781 4.535156 4.054688 L 4.535156 9.804688 Z M 16.277344 9.878906 "/>
<path style=" stroke:none;fill-rule:nonzero;fill:rgb(67.45098%,83.921569%,43.921569%);fill-opacity:1;" d="M 13.816406 4.4375 L 13.414062 6.585938 L 13.75 10 L 14.808594 4.640625 Z M 13.816406 4.4375 "/>
<path style=" stroke:none;fill-rule:nonzero;fill:rgb(67.45098%,83.921569%,43.921569%);fill-opacity:1;" d="M 15.628906 6.335938 L 13.488281 9.878906 L 14.808594 9.902344 L 16.769531 7.09375 Z M 15.628906 6.335938 "/>
<path style=" stroke:none;fill-rule:nonzero;fill:rgb(67.45098%,83.921569%,43.921569%);fill-opacity:1;" d="M 12.390625 5.441406 L 13.402344 5.441406 L 13.402344 10 L 12.390625 10 Z M 12.390625 5.441406 "/>
<path style=" stroke:none;fill-rule:nonzero;fill:rgb(67.45098%,83.921569%,43.921569%);fill-opacity:1;" d="M 2.703125 0.390625 L 3.640625 0.390625 L 3.640625 3.695312 L 2.703125 3.695312 Z M 2.703125 0.390625 "/>
<path style=" stroke:none;fill-rule:nonzero;fill:rgb(93.72549%,44.313725%,34.901961%);fill-opacity:1;" d="M 5.410156 10 C 5.625 9.21875 5.8125 8.480469 5.945312 7.871094 C 6.085938 7.238281 6.171875 6.742188 6.171875 6.472656 C 6.171875 4.992188 4.878906 3.789062 3.28125 3.789062 C 1.683594 3.789062 0.390625 4.992188 0.390625 6.472656 C 0.390625 7 0.71875 8.402344 1.152344 10 Z M 5.410156 10 "/>
<path style=" stroke:none;fill-rule:nonzero;fill:rgb(67.45098%,83.921569%,43.921569%);fill-opacity:1;" d="M 9.921875 10 C 9.921875 8.621094 8.800781 7.5 7.421875 7.5 C 6.042969 7.5 4.921875 8.621094 4.921875 10 Z M 9.921875 10 "/>
<path style=" stroke:none;fill-rule:nonzero;fill:rgb(100%,78.823529%,26.27451%);fill-opacity:1;" d="M 11.664062 8.246094 C 11.664062 6.863281 10.546875 5.746094 9.164062 5.746094 C 8.035156 5.746094 7.082031 6.492188 6.773438 7.519531 C 6.773438 7.519531 9.429688 7.402344 9.84375 9.382812 C 10.546875 7.957031 11.664062 8.246094 11.664062 8.246094 Z M 11.664062 8.246094 "/>
<path style=" stroke:none;fill-rule:nonzero;fill:rgb(65.490196%,40%,69.803922%);fill-opacity:1;" d="M 12.414062 10.003906 C 12.46875 9.859375 12.5 9.703125 12.5 9.535156 C 12.5 8.828125 11.941406 8.25 11.25 8.25 C 10.558594 8.25 10 8.828125 10 9.535156 C 10 9.703125 10.03125 9.859375 10.085938 10.003906 Z M 12.414062 10.003906 "/>
<path style=" stroke:none;fill-rule:nonzero;fill:rgb(0%,0%,0%);fill-opacity:1;" d="M 2.738281 17.699219 L 2.734375 17.695312 C 2.566406 17.566406 2.320312 17.597656 2.1875 17.769531 C 2.058594 17.941406 2.089844 18.183594 2.261719 18.316406 L 2.265625 18.320312 C 2.335938 18.375 2.417969 18.398438 2.5 18.398438 C 2.617188 18.398438 2.734375 18.347656 2.8125 18.246094 C 2.941406 18.074219 2.910156 17.832031 2.738281 17.699219 Z M 2.738281 17.699219 "/>
<path style=" stroke:none;fill-rule:nonzero;fill:rgb(0%,0%,0%);fill-opacity:1;" d="M 2.738281 14.496094 L 2.734375 14.492188 C 2.566406 14.363281 2.320312 14.394531 2.1875 14.566406 C 2.058594 14.738281 2.089844 14.980469 2.261719 15.113281 L 2.265625 15.117188 C 2.335938 15.171875 2.417969 15.195312 2.5 15.195312 C 2.617188 15.195312 2.734375 15.144531 2.8125 15.042969 C 2.941406 14.871094 2.910156 14.628906 2.738281 14.496094 Z M 2.738281 14.496094 "/>
<path style=" stroke:none;fill-rule:nonzero;fill:rgb(0%,0%,0%);fill-opacity:1;" d="M 2.738281 11.292969 L 2.734375 11.289062 C 2.566406 11.160156 2.320312 11.191406 2.1875 11.363281 C 2.058594 11.535156 2.089844 11.777344 2.261719 11.910156 L 2.265625 11.914062 C 2.335938 11.96875 2.417969 11.992188 2.5 11.992188 C 2.617188 11.992188 2.734375 11.941406 2.8125 11.839844 C 2.941406 11.667969 2.910156 11.425781 2.738281 11.292969 Z M 2.738281 11.292969 "/>
<path style=" stroke:none;fill-rule:nonzero;fill:rgb(0%,0%,0%);fill-opacity:1;" d="M 17.734375 17.699219 L 17.730469 17.695312 C 17.558594 17.566406 17.316406 17.597656 17.183594 17.769531 C 17.054688 17.941406 17.089844 18.1875 17.261719 18.316406 L 17.265625 18.320312 C 17.335938 18.375 17.417969 18.398438 17.5 18.398438 C 17.617188 18.398438 17.734375 18.347656 17.8125 18.246094 C 17.941406 18.074219 17.90625 17.828125 17.734375 17.699219 Z M 17.734375 17.699219 "/>
<path style=" stroke:none;fill-rule:nonzero;fill:rgb(0%,0%,0%);fill-opacity:1;" d="M 17.261719 15.113281 L 17.265625 15.117188 C 17.335938 15.171875 17.417969 15.195312 17.5 15.195312 C 17.617188 15.195312 17.734375 15.144531 17.8125 15.042969 C 17.941406 14.871094 17.90625 14.625 17.734375 14.496094 L 17.730469 14.492188 C 17.558594 14.363281 17.316406 14.394531 17.183594 14.566406 C 17.054688 14.738281 17.089844 14.984375 17.261719 15.113281 Z M 17.261719 15.113281 "/>
<path style=" stroke:none;fill-rule:nonzero;fill:rgb(0%,0%,0%);fill-opacity:1;" d="M 17.261719 11.910156 L 17.265625 11.914062 C 17.335938 11.96875 17.417969 11.992188 17.5 11.992188 C 17.617188 11.992188 17.734375 11.941406 17.8125 11.839844 C 17.941406 11.667969 17.90625 11.421875 17.734375 11.292969 L 17.730469 11.289062 C 17.558594 11.160156 17.316406 11.191406 17.183594 11.363281 C 17.054688 11.535156 17.089844 11.78125 17.261719 11.910156 Z M 17.261719 11.910156 "/>
<path style=" stroke:none;fill-rule:nonzero;fill:rgb(0%,0%,0%);fill-opacity:1;" d="M 14.425781 13.59375 L 14.433594 13.59375 C 14.648438 13.59375 14.824219 13.417969 14.824219 13.203125 C 14.824219 12.988281 14.648438 12.8125 14.433594 12.8125 L 14.425781 12.8125 C 14.210938 12.8125 14.035156 12.988281 14.035156 13.203125 C 14.035156 13.417969 14.210938 13.59375 14.425781 13.59375 Z M 14.425781 13.59375 "/>
<path style=" stroke:none;fill-rule:nonzero;fill:rgb(0%,0%,0%);fill-opacity:1;" d="M 5.574219 16.015625 L 5.566406 16.015625 C 5.351562 16.015625 5.175781 16.191406 5.175781 16.40625 C 5.175781 16.621094 5.351562 16.796875 5.566406 16.796875 L 5.574219 16.796875 C 5.789062 16.796875 5.964844 16.621094 5.964844 16.40625 C 5.964844 16.191406 5.789062 16.015625 5.574219 16.015625 Z M 5.574219 16.015625 "/>
<path style=" stroke:none;fill-rule:nonzero;fill:rgb(0%,0%,0%);fill-opacity:1;" d="M 2.878906 7.121094 C 2.777344 7.121094 2.675781 7.160156 2.601562 7.234375 C 2.53125 7.304688 2.488281 7.40625 2.488281 7.511719 C 2.488281 7.613281 2.53125 7.714844 2.601562 7.785156 C 2.675781 7.859375 2.777344 7.902344 2.878906 7.902344 C 2.984375 7.902344 3.082031 7.859375 3.15625 7.785156 C 3.226562 7.714844 3.269531 7.613281 3.269531 7.511719 C 3.269531 7.40625 3.226562 7.308594 3.15625 7.234375 C 3.082031 7.160156 2.984375 7.121094 2.878906 7.121094 Z M 2.878906 7.121094 "/>
<path style=" stroke:none;fill-rule:nonzero;fill:rgb(0%,0%,0%);fill-opacity:1;" d="M 19.609375 9.609375 L 17.988281 9.609375 C 18.683594 9.207031 19.15625 8.453125 19.15625 7.59375 C 19.15625 6.699219 18.648438 5.902344 17.875 5.515625 C 18.007812 5.21875 18.078125 4.898438 18.078125 4.5625 C 18.078125 3.28125 17.035156 2.238281 15.753906 2.238281 C 15.351562 2.238281 14.960938 2.339844 14.617188 2.535156 C 14.160156 2.21875 13.621094 2.042969 13.058594 2.042969 C 13.019531 2.042969 12.984375 2.042969 12.945312 2.046875 C 12.53125 0.84375 11.382812 0 10.085938 0 C 8.917969 0 7.859375 0.679688 7.363281 1.714844 C 7.269531 1.707031 7.175781 1.703125 7.082031 1.703125 C 5.851562 1.703125 4.761719 2.445312 4.296875 3.550781 C 4.210938 3.527344 4.128906 3.503906 4.042969 3.484375 C 4.085938 2.984375 4.246094 2.601562 4.515625 2.34375 C 4.75 2.121094 4.988281 2.074219 5 2.074219 L 4.992188 2.074219 C 5.074219 2.0625 5.152344 2.023438 5.210938 1.964844 C 5.285156 1.890625 5.328125 1.789062 5.328125 1.6875 C 5.328125 1.585938 5.285156 1.484375 5.210938 1.410156 C 5.140625 1.339844 5.039062 1.296875 4.9375 1.296875 C 4.914062 1.296875 4.894531 1.296875 4.871094 1.300781 C 4.640625 1.339844 4.320312 1.46875 4.03125 1.730469 L 4.03125 0.390625 C 4.03125 0.175781 3.855469 0 3.640625 0 L 2.703125 0 C 2.484375 0 2.3125 0.175781 2.3125 0.390625 L 2.3125 1.851562 C 1.863281 1.300781 1.375 0.976562 1.339844 0.953125 C 1.160156 0.835938 0.917969 0.886719 0.800781 1.066406 C 0.679688 1.246094 0.730469 1.488281 0.910156 1.609375 C 0.925781 1.617188 2.105469 2.40625 2.28125 3.546875 C 0.960938 3.941406 0 5.105469 0 6.472656 C 0 7.042969 0.324219 8.40625 0.640625 9.609375 L 0.390625 9.609375 C 0.175781 9.609375 0 9.785156 0 10 L 0 19.609375 C 0 19.824219 0.175781 20 0.390625 20 L 19.609375 20 C 19.824219 20 20 19.824219 20 19.609375 L 20 10 C 20 9.785156 19.824219 9.609375 19.609375 9.609375 Z M 7.082031 2.484375 C 7.230469 2.484375 7.382812 2.5 7.527344 2.527344 C 7.71875 2.566406 7.910156 2.460938 7.972656 2.277344 C 8.289062 1.382812 9.136719 0.78125 10.085938 0.78125 C 11.007812 0.78125 11.832031 1.359375 12.167969 2.195312 C 11.113281 2.5625 10.355469 3.570312 10.355469 4.75 C 10.355469 4.964844 10.527344 5.140625 10.746094 5.140625 C 10.960938 5.140625 11.136719 4.964844 11.136719 4.75 C 11.136719 3.6875 12 2.824219 13.058594 2.824219 C 13.53125 2.824219 13.984375 2.996094 14.335938 3.308594 C 14.472656 3.433594 14.679688 3.441406 14.828125 3.328125 C 15.097656 3.128906 15.417969 3.019531 15.753906 3.019531 C 16.605469 3.019531 17.296875 3.714844 17.296875 4.5625 C 17.296875 4.898438 17.191406 5.21875 16.992188 5.484375 C 16.914062 5.589844 16.894531 5.726562 16.9375 5.847656 C 16.980469 5.972656 17.085938 6.066406 17.210938 6.097656 C 17.894531 6.269531 18.375 6.886719 18.375 7.59375 C 18.375 8.445312 17.683594 9.136719 16.832031 9.136719 C 16.734375 9.136719 16.636719 9.128906 16.539062 9.109375 C 16.351562 9.070312 16.164062 9.179688 16.097656 9.359375 C 16.066406 9.445312 16.027344 9.53125 15.984375 9.609375 L 15.488281 9.609375 L 17.089844 7.316406 C 17.148438 7.230469 17.171875 7.125 17.152344 7.019531 C 17.132812 6.917969 17.074219 6.824219 16.984375 6.769531 L 15.847656 6.011719 C 15.757812 5.949219 15.648438 5.929688 15.542969 5.953125 C 15.441406 5.976562 15.351562 6.042969 15.296875 6.132812 L 14.726562 7.074219 L 15.191406 4.71875 C 15.234375 4.507812 15.097656 4.304688 14.886719 4.257812 L 13.894531 4.054688 C 13.792969 4.035156 13.683594 4.054688 13.597656 4.113281 C 13.511719 4.171875 13.449219 4.261719 13.429688 4.367188 L 13.304688 5.050781 L 12.390625 5.050781 C 12.175781 5.050781 12 5.226562 12 5.441406 L 12 7.691406 C 11.742188 6.359375 10.570312 5.355469 9.164062 5.355469 C 8.53125 5.355469 7.929688 5.554688 7.425781 5.933594 C 7.011719 6.246094 6.683594 6.675781 6.488281 7.152344 C 6.539062 6.859375 6.5625 6.632812 6.5625 6.472656 C 6.5625 5.945312 6.417969 5.445312 6.164062 5.007812 C 6.371094 4.449219 6.90625 4.070312 7.507812 4.070312 C 7.605469 4.070312 7.699219 4.082031 7.792969 4.101562 C 7.984375 4.140625 8.175781 4.03125 8.238281 3.847656 C 8.324219 3.609375 8.46875 3.398438 8.660156 3.234375 C 8.824219 3.09375 8.84375 2.847656 8.703125 2.683594 C 8.5625 2.519531 8.316406 2.5 8.152344 2.640625 C 7.9375 2.824219 7.761719 3.046875 7.632812 3.292969 C 7.589844 3.292969 7.550781 3.289062 7.507812 3.289062 C 6.730469 3.289062 6.027344 3.695312 5.632812 4.332031 C 5.445312 4.152344 5.238281 3.996094 5.011719 3.863281 C 5.355469 3.039062 6.164062 2.484375 7.082031 2.484375 Z M 14.28125 9.324219 L 15.753906 6.886719 L 16.21875 7.195312 L 14.539062 9.609375 L 14.226562 9.609375 Z M 13.792969 7.765625 L 13.792969 6.679688 C 13.796875 6.671875 13.796875 6.664062 13.800781 6.65625 L 14.125 4.902344 L 14.351562 4.945312 Z M 12.78125 8.933594 C 12.78125 8.917969 12.78125 8.902344 12.78125 8.886719 L 12.78125 5.832031 L 13.011719 5.832031 L 13.011719 9.609375 L 12.890625 9.609375 C 12.890625 9.585938 12.890625 9.558594 12.890625 9.535156 C 12.890625 9.324219 12.851562 9.121094 12.78125 8.933594 Z M 7.421875 7.109375 C 7.410156 7.109375 7.398438 7.109375 7.386719 7.109375 C 7.769531 6.515625 8.4375 6.136719 9.164062 6.136719 C 10.195312 6.136719 11.058594 6.878906 11.238281 7.859375 C 10.699219 7.863281 10.21875 8.136719 9.921875 8.554688 C 9.421875 7.691406 8.488281 7.109375 7.421875 7.109375 Z M 9.496094 9.609375 L 5.347656 9.609375 C 5.53125 8.632812 6.390625 7.890625 7.421875 7.890625 C 8.453125 7.890625 9.3125 8.632812 9.496094 9.609375 Z M 11.25 8.640625 C 11.722656 8.640625 12.109375 9.042969 12.109375 9.535156 C 12.109375 9.558594 12.109375 9.585938 12.105469 9.609375 L 10.394531 9.609375 C 10.390625 9.585938 10.390625 9.558594 10.390625 9.535156 C 10.390625 9.042969 10.777344 8.640625 11.25 8.640625 Z M 3.09375 0.78125 L 3.25 0.78125 L 3.25 3.402344 C 3.195312 3.402344 3.144531 3.402344 3.09375 3.40625 Z M 0.804688 6.164062 C 0.828125 6.167969 0.855469 6.171875 0.878906 6.171875 L 2.8125 6.171875 C 3.027344 6.171875 3.203125 5.996094 3.203125 5.78125 C 3.203125 5.566406 3.027344 5.390625 2.8125 5.390625 L 1.078125 5.390625 C 1.5 4.671875 2.328125 4.179688 3.28125 4.179688 C 4.660156 4.179688 5.78125 5.210938 5.78125 6.472656 C 5.78125 6.574219 5.765625 6.761719 5.703125 7.109375 L 4.152344 7.109375 C 3.9375 7.109375 3.761719 7.285156 3.761719 7.5 C 3.761719 7.714844 3.9375 7.890625 4.152344 7.890625 L 5.449219 7.890625 C 4.972656 8.335938 4.648438 8.933594 4.558594 9.609375 L 1.449219 9.609375 C 1.023438 8.015625 0.78125 6.882812 0.78125 6.472656 C 0.78125 6.367188 0.789062 6.265625 0.804688 6.164062 Z M 19.21875 12.8125 L 15.78125 12.8125 C 15.566406 12.8125 15.390625 12.988281 15.390625 13.203125 C 15.390625 13.417969 15.566406 13.59375 15.78125 13.59375 L 19.21875 13.59375 L 19.21875 16.015625 L 6.898438 16.015625 C 6.683594 16.015625 6.507812 16.191406 6.507812 16.40625 C 6.507812 16.621094 6.683594 16.796875 6.898438 16.796875 L 19.21875 16.796875 L 19.21875 19.21875 L 0.78125 19.21875 L 0.78125 16.796875 L 4.21875 16.796875 C 4.433594 16.796875 4.609375 16.621094 4.609375 16.40625 C 4.609375 16.191406 4.433594 16.015625 4.21875 16.015625 L 0.78125 16.015625 L 0.78125 13.59375 L 13.101562 13.59375 C 13.316406 13.59375 13.492188 13.417969 13.492188 13.203125 C 13.492188 12.988281 13.316406 12.8125 13.101562 12.8125 L 0.78125 12.8125 L 0.78125 10.390625 L 19.21875 10.390625 Z M 19.21875 12.8125 "/>
<path style=" stroke:none;fill-rule:nonzero;fill:rgb(0%,0%,0%);fill-opacity:1;" d="M 9.582031 2.890625 L 9.589844 2.890625 C 9.804688 2.890625 9.980469 2.714844 9.980469 2.5 C 9.980469 2.285156 9.804688 2.109375 9.589844 2.109375 L 9.582031 2.109375 C 9.367188 2.109375 9.191406 2.285156 9.191406 2.5 C 9.191406 2.714844 9.367188 2.890625 9.582031 2.890625 Z M 9.582031 2.890625 "/>
</g>
</svg>
