<?xml version="1.0" encoding="UTF-8"?>
<svg xmlns="http://www.w3.org/2000/svg" xmlns:xlink="http://www.w3.org/1999/xlink" width="20pt" height="20pt" viewBox="0 0 20 20" version="1.1">
<g id="surface1">
<path style=" stroke:none;fill-rule:nonzero;fill:rgb(61.960784%,45.098039%,14.509804%);fill-opacity:1;" d="M 12.777344 6.683594 C 9.070312 6.757812 6.125 9.828125 6.125 13.53125 L 16.3125 15.859375 L 17.308594 15.859375 C 18.632812 15.859375 19.707031 14.789062 19.707031 13.464844 C 19.707031 9.671875 16.589844 6.609375 12.777344 6.683594 Z M 12.777344 6.683594 "/>
<path style=" stroke:none;fill-rule:nonzero;fill:rgb(76.862745%,77.647059%,35.294118%);fill-opacity:1;" d="M 16.640625 7.921875 C 16.621094 7.847656 16.59375 7.777344 16.5625 7.707031 C 16.527344 7.636719 16.480469 7.570312 16.433594 7.507812 C 16.40625 7.472656 16.382812 7.445312 16.355469 7.414062 C 16.324219 7.386719 16.296875 7.363281 16.265625 7.335938 C 16.203125 7.289062 16.140625 7.246094 16.074219 7.207031 C 15.933594 7.140625 15.785156 7.097656 15.628906 7.09375 C 15.324219 7.082031 15.085938 6.847656 15.0625 6.542969 C 15.058594 6.46875 15.046875 6.390625 15.023438 6.316406 C 15.003906 6.242188 14.972656 6.171875 14.933594 6.105469 C 14.863281 5.96875 14.753906 5.851562 14.625 5.753906 C 14.359375 5.5625 14.035156 5.488281 13.734375 5.566406 C 13.441406 5.632812 13.144531 5.480469 13.035156 5.195312 C 12.980469 5.050781 12.894531 4.917969 12.785156 4.808594 C 12.667969 4.707031 12.535156 4.617188 12.378906 4.566406 C 12.222656 4.507812 12.0625 4.496094 11.90625 4.507812 C 11.75 4.523438 11.601562 4.574219 11.46875 4.65625 C 11.207031 4.816406 10.882812 4.757812 10.6875 4.523438 C 10.636719 4.464844 10.582031 4.410156 10.523438 4.363281 C 10.460938 4.316406 10.394531 4.277344 10.324219 4.242188 C 10.289062 4.226562 10.25 4.210938 10.214844 4.199219 C 10.175781 4.1875 10.136719 4.175781 10.097656 4.167969 C 10.019531 4.152344 9.941406 4.140625 9.859375 4.140625 C 9.777344 4.140625 9.695312 4.152344 9.617188 4.167969 C 9.578125 4.175781 9.539062 4.1875 9.503906 4.199219 C 9.464844 4.210938 9.429688 4.226562 9.394531 4.242188 C 9.324219 4.277344 9.257812 4.316406 9.195312 4.363281 C 9.132812 4.410156 9.078125 4.464844 9.03125 4.523438 C 8.835938 4.757812 8.507812 4.816406 8.246094 4.65625 C 8.117188 4.574219 7.964844 4.523438 7.8125 4.507812 C 7.65625 4.496094 7.492188 4.507812 7.339844 4.566406 C 7.183594 4.617188 7.046875 4.707031 6.933594 4.808594 C 6.820312 4.917969 6.734375 5.050781 6.679688 5.195312 C 6.574219 5.480469 6.277344 5.632812 5.980469 5.566406 C 5.679688 5.488281 5.355469 5.5625 5.09375 5.753906 C 4.964844 5.851562 4.855469 5.96875 4.78125 6.105469 C 4.746094 6.171875 4.714844 6.242188 4.691406 6.316406 C 4.671875 6.390625 4.65625 6.46875 4.652344 6.542969 C 4.628906 6.847656 4.390625 7.082031 4.085938 7.09375 C 3.933594 7.097656 3.78125 7.140625 3.644531 7.207031 C 3.578125 7.246094 3.511719 7.289062 3.449219 7.335938 C 3.421875 7.363281 3.390625 7.386719 3.363281 7.414062 C 3.335938 7.445312 3.308594 7.476562 3.285156 7.507812 C 3.234375 7.570312 3.191406 7.636719 3.15625 7.707031 C 3.121094 7.777344 3.09375 7.847656 3.074219 7.921875 C 3.035156 8.070312 3.03125 8.226562 3.058594 8.378906 C 3.066406 8.414062 3.070312 8.453125 3.070312 8.488281 C 3.070312 8.527344 3.066406 8.5625 3.058594 8.597656 C 3.046875 8.667969 3.019531 8.734375 2.980469 8.792969 C 2.90625 8.910156 2.792969 9.003906 2.644531 9.046875 C 2.496094 9.085938 2.359375 9.160156 2.242188 9.257812 C 2.183594 9.308594 2.128906 9.367188 2.082031 9.425781 C 2.058594 9.457031 2.035156 9.492188 2.015625 9.523438 C 1.996094 9.558594 1.976562 9.59375 1.960938 9.628906 C 1.925781 9.699219 1.898438 9.773438 1.878906 9.851562 C 1.863281 9.925781 1.851562 10.003906 1.851562 10.078125 C 1.847656 10.15625 1.851562 10.230469 1.867188 10.308594 C 1.882812 10.382812 1.90625 10.457031 1.933594 10.527344 C 1.964844 10.597656 1.980469 10.667969 1.980469 10.738281 L 9.808594 13.3125 L 15.132812 9.59375 C 16.492188 9.3125 16.65625 8.378906 16.65625 8.378906 C 16.683594 8.226562 16.683594 8.070312 16.640625 7.921875 Z M 16.640625 7.921875 "/>
<path style=" stroke:none;fill-rule:nonzero;fill:rgb(56.862745%,34.117647%,16.078431%);fill-opacity:1;" d="M 15.132812 9.59375 C 14.566406 10.054688 11.96875 11.574219 9.808594 13.308594 L 15.476562 15.171875 C 15.5625 15.042969 15.679688 14.953125 15.8125 14.902344 C 15.878906 14.878906 15.949219 14.859375 16.023438 14.859375 C 16.09375 14.855469 16.167969 14.859375 16.246094 14.882812 C 16.398438 14.921875 16.5625 14.921875 16.722656 14.882812 C 16.804688 14.863281 16.882812 14.828125 16.960938 14.785156 C 17.035156 14.746094 17.105469 14.691406 17.171875 14.632812 C 17.304688 14.511719 17.402344 14.367188 17.457031 14.207031 C 17.472656 14.167969 17.484375 14.128906 17.492188 14.089844 C 17.5 14.050781 17.507812 14.011719 17.511719 13.96875 C 17.515625 13.929688 17.515625 13.890625 17.515625 13.851562 C 17.511719 13.8125 17.507812 13.773438 17.5 13.734375 C 17.488281 13.65625 17.488281 13.582031 17.496094 13.507812 C 17.5 13.472656 17.511719 13.4375 17.523438 13.40625 C 17.53125 13.371094 17.542969 13.335938 17.558594 13.304688 C 17.574219 13.273438 17.59375 13.246094 17.617188 13.214844 C 17.636719 13.1875 17.660156 13.15625 17.683594 13.132812 C 17.734375 13.082031 17.792969 13.035156 17.863281 13 C 17.898438 12.980469 17.933594 12.960938 17.964844 12.9375 C 18 12.914062 18.027344 12.890625 18.058594 12.863281 C 18.089844 12.835938 18.117188 12.808594 18.144531 12.777344 C 18.171875 12.746094 18.195312 12.710938 18.214844 12.675781 C 18.238281 12.640625 18.261719 12.605469 18.277344 12.566406 C 18.296875 12.527344 18.3125 12.488281 18.328125 12.449219 C 18.355469 12.367188 18.371094 12.28125 18.378906 12.191406 C 18.390625 12.101562 18.382812 12.011719 18.371094 11.925781 C 18.359375 11.84375 18.335938 11.761719 18.304688 11.683594 C 18.269531 11.605469 18.230469 11.535156 18.179688 11.472656 C 18.128906 11.410156 18.070312 11.351562 18.011719 11.304688 C 17.949219 11.257812 17.894531 11.203125 17.855469 11.144531 C 17.816406 11.082031 17.78125 11.019531 17.761719 10.953125 C 17.742188 10.882812 17.730469 10.8125 17.734375 10.738281 C 17.738281 10.667969 17.75 10.597656 17.78125 10.527344 C 17.8125 10.457031 17.835938 10.382812 17.847656 10.308594 C 17.863281 10.230469 17.867188 10.15625 17.867188 10.078125 C 17.863281 10.003906 17.855469 9.925781 17.835938 9.851562 C 17.816406 9.773438 17.792969 9.699219 17.757812 9.628906 C 17.738281 9.59375 17.722656 9.558594 17.703125 9.523438 C 17.679688 9.488281 17.65625 9.457031 17.632812 9.425781 C 17.585938 9.367188 17.53125 9.308594 17.476562 9.257812 C 17.460938 9.25 17.449219 9.238281 17.433594 9.226562 C 17.261719 9.09375 17.046875 9 16.832031 8.972656 C 16.277344 8.902344 15.8125 9.042969 15.132812 9.59375 Z M 15.132812 9.59375 "/>
<path style=" stroke:none;fill-rule:nonzero;fill:rgb(78.823529%,35.294118%,22.745098%);fill-opacity:1;" d="M 12.757812 7.960938 C 12.757812 6.636719 11.683594 5.566406 10.359375 5.566406 C 9.035156 5.566406 7.960938 6.636719 7.960938 7.960938 C 7.960938 9.28125 9.035156 10.351562 10.359375 10.351562 C 11.683594 10.351562 12.757812 9.28125 12.757812 7.960938 Z M 12.757812 7.960938 "/>
<path style=" stroke:none;fill-rule:nonzero;fill:rgb(78.823529%,35.294118%,22.745098%);fill-opacity:1;" d="M 7.484375 8.636719 C 7.484375 7.316406 6.410156 6.246094 5.085938 6.246094 C 3.761719 6.246094 2.691406 7.316406 2.691406 8.636719 C 2.691406 9.960938 3.761719 11.03125 5.085938 11.03125 C 6.410156 11.03125 7.484375 9.960938 7.484375 8.636719 Z M 7.484375 8.636719 "/>
<path style=" stroke:none;fill-rule:nonzero;fill:rgb(78.823529%,35.294118%,22.745098%);fill-opacity:1;" d="M 5.085938 12.066406 C 5.085938 10.742188 4.011719 9.671875 2.691406 9.671875 C 1.367188 9.671875 0.292969 10.742188 0.292969 12.066406 C 0.292969 13.386719 1.367188 14.460938 2.691406 14.460938 C 4.011719 14.460938 5.085938 13.386719 5.085938 12.066406 Z M 5.085938 12.066406 "/>
<path style=" stroke:none;fill-rule:nonzero;fill:rgb(78.823529%,35.294118%,22.745098%);fill-opacity:1;" d="M 16.511719 11.472656 C 16.511719 10.148438 15.4375 9.078125 14.113281 9.078125 C 12.789062 9.078125 11.71875 10.148438 11.71875 11.472656 C 11.71875 12.792969 12.789062 13.863281 14.113281 13.863281 C 15.4375 13.863281 16.511719 12.792969 16.511719 11.472656 Z M 16.511719 11.472656 "/>
<path style=" stroke:none;fill-rule:nonzero;fill:rgb(65.490196%,66.27451%,31.764706%);fill-opacity:1;" d="M 13.816406 7.472656 C 14.246094 7.359375 14.636719 7.75 14.523438 8.179688 L 14.296875 9.011719 L 14.074219 9.847656 C 13.960938 10.273438 13.421875 10.417969 13.109375 10.105469 L 12.5 9.492188 L 11.886719 8.882812 C 11.574219 8.570312 11.714844 8.035156 12.144531 7.921875 L 12.980469 7.695312 Z M 13.816406 7.472656 "/>
<path style=" stroke:none;fill-rule:nonzero;fill:rgb(81.960784%,82.352941%,45.490196%);fill-opacity:1;" d="M 13.472656 8.925781 L 13.699219 8.09375 C 13.753906 7.882812 13.6875 7.679688 13.554688 7.542969 L 12.980469 7.695312 L 12.144531 7.921875 C 11.714844 8.035156 11.574219 8.570312 11.886719 8.882812 L 12.5 9.492188 L 13.0625 10.054688 C 13.148438 9.984375 13.21875 9.882812 13.25 9.761719 Z M 13.472656 8.925781 "/>
<path style=" stroke:none;fill-rule:nonzero;fill:rgb(65.490196%,66.27451%,31.764706%);fill-opacity:1;" d="M 7.425781 5.863281 C 7.648438 5.574219 8.203125 5.574219 8.425781 5.863281 L 8.859375 6.425781 L 9.289062 6.988281 C 9.511719 7.277344 9.234375 7.640625 8.792969 7.640625 L 7.0625 7.640625 C 6.617188 7.640625 6.339844 7.277344 6.5625 6.988281 L 6.996094 6.425781 Z M 7.425781 5.863281 "/>
<path style=" stroke:none;fill-rule:nonzero;fill:rgb(81.960784%,82.352941%,45.490196%);fill-opacity:1;" d="M 8.214844 6.820312 L 7.78125 6.253906 C 7.671875 6.113281 7.484375 6.039062 7.292969 6.039062 L 6.996094 6.425781 L 6.5625 6.988281 C 6.339844 7.277344 6.617188 7.640625 7.0625 7.640625 L 8.722656 7.640625 C 8.734375 7.554688 8.710938 7.464844 8.648438 7.382812 Z M 8.214844 6.820312 "/>
<path style=" stroke:none;fill-rule:nonzero;fill:rgb(65.490196%,66.27451%,31.764706%);fill-opacity:1;" d="M 1.429688 9.234375 C 1.378906 8.875 1.773438 8.484375 2.132812 8.53125 L 2.839844 8.625 L 3.542969 8.71875 C 3.90625 8.765625 3.964844 9.21875 3.652344 9.53125 L 3.039062 10.140625 L 2.429688 10.75 C 2.113281 11.066406 1.664062 11.003906 1.617188 10.644531 L 1.523438 9.941406 Z M 1.429688 9.234375 "/>
<path style=" stroke:none;fill-rule:nonzero;fill:rgb(81.960784%,82.352941%,45.490196%);fill-opacity:1;" d="M 2.664062 9.355469 L 1.957031 9.261719 C 1.78125 9.238281 1.59375 9.324219 1.457031 9.457031 L 1.523438 9.941406 L 1.617188 10.644531 C 1.664062 11.003906 2.113281 11.066406 2.429688 10.75 L 3.601562 9.578125 C 3.550781 9.511719 3.472656 9.464844 3.367188 9.449219 Z M 2.664062 9.355469 "/>
<path style=" stroke:none;fill-rule:nonzero;fill:rgb(92.156863%,82.745098%,47.843137%);fill-opacity:1;" d="M 1.332031 13.53125 C 1.332031 9.828125 4.277344 6.757812 7.984375 6.683594 C 11.796875 6.609375 14.914062 9.671875 14.914062 13.464844 C 14.914062 14.789062 15.988281 15.859375 17.308594 15.859375 L 3.664062 15.859375 C 2.375 15.859375 1.332031 14.816406 1.332031 13.53125 Z M 1.332031 13.53125 "/>
<path style=" stroke:none;fill-rule:nonzero;fill:rgb(85.098039%,70.588235%,22.745098%);fill-opacity:1;" d="M 14.9375 13.789062 L 1.347656 13.789062 C 1.476562 14.953125 2.464844 15.859375 3.664062 15.859375 L 17.308594 15.859375 C 16.097656 15.859375 15.09375 14.957031 14.9375 13.789062 Z M 14.9375 13.789062 "/>
<path style=" stroke:none;fill-rule:nonzero;fill:rgb(0%,0%,0%);fill-opacity:1;" d="M 17.890625 8.429688 C 17.777344 8.316406 17.589844 8.316406 17.476562 8.433594 C 17.363281 8.546875 17.367188 8.734375 17.480469 8.847656 C 17.542969 8.90625 17.605469 8.972656 17.664062 9.035156 C 17.648438 9.019531 17.628906 9.007812 17.613281 8.996094 C 17.390625 8.824219 17.128906 8.714844 16.867188 8.683594 C 16.863281 8.679688 16.855469 8.679688 16.851562 8.679688 C 16.917969 8.550781 16.9375 8.457031 16.941406 8.449219 C 16.945312 8.441406 16.945312 8.4375 16.945312 8.429688 C 16.980469 8.230469 16.972656 8.027344 16.925781 7.847656 C 16.902344 7.757812 16.867188 7.664062 16.824219 7.578125 C 16.824219 7.574219 16.824219 7.574219 16.824219 7.570312 C 16.78125 7.488281 16.726562 7.40625 16.664062 7.324219 C 16.632812 7.285156 16.597656 7.25 16.566406 7.214844 C 16.5625 7.210938 16.5625 7.210938 16.5625 7.207031 C 16.527344 7.175781 16.492188 7.144531 16.449219 7.109375 C 16.375 7.046875 16.292969 6.996094 16.210938 6.949219 C 16.207031 6.949219 16.207031 6.949219 16.203125 6.945312 C 16.023438 6.855469 15.835938 6.808594 15.640625 6.800781 C 15.488281 6.792969 15.367188 6.679688 15.355469 6.523438 C 15.351562 6.429688 15.332031 6.332031 15.308594 6.238281 C 15.304688 6.234375 15.304688 6.234375 15.304688 6.234375 C 15.277344 6.144531 15.238281 6.054688 15.191406 5.96875 C 15.105469 5.800781 14.972656 5.652344 14.800781 5.519531 C 14.800781 5.519531 14.796875 5.515625 14.796875 5.515625 C 14.460938 5.273438 14.046875 5.1875 13.667969 5.28125 C 13.511719 5.316406 13.367188 5.238281 13.3125 5.089844 C 13.242188 4.90625 13.132812 4.742188 12.988281 4.601562 C 12.984375 4.597656 12.984375 4.597656 12.980469 4.59375 C 12.828125 4.453125 12.65625 4.347656 12.472656 4.289062 C 12.289062 4.222656 12.089844 4.199219 11.878906 4.214844 C 11.878906 4.214844 11.878906 4.214844 11.875 4.21875 C 11.679688 4.238281 11.488281 4.300781 11.316406 4.40625 C 11.183594 4.488281 11.015625 4.460938 10.914062 4.339844 C 10.847656 4.261719 10.777344 4.191406 10.703125 4.132812 C 10.699219 4.128906 10.699219 4.128906 10.699219 4.128906 C 10.621094 4.070312 10.535156 4.019531 10.449219 3.976562 C 10.402344 3.957031 10.359375 3.9375 10.3125 3.921875 C 10.308594 3.921875 10.308594 3.921875 10.308594 3.921875 C 10.253906 3.902344 10.199219 3.890625 10.160156 3.882812 C 10.0625 3.859375 9.964844 3.851562 9.863281 3.847656 C 9.859375 3.847656 9.855469 3.847656 9.851562 3.847656 C 9.753906 3.851562 9.652344 3.859375 9.554688 3.882812 C 9.515625 3.890625 9.464844 3.902344 9.410156 3.921875 C 9.40625 3.921875 9.40625 3.921875 9.40625 3.921875 C 9.359375 3.9375 9.3125 3.957031 9.269531 3.976562 C 9.179688 4.019531 9.097656 4.070312 9.019531 4.128906 C 9.015625 4.128906 9.015625 4.128906 9.015625 4.132812 C 8.9375 4.191406 8.867188 4.261719 8.804688 4.335938 C 8.699219 4.460938 8.535156 4.488281 8.398438 4.402344 C 8.230469 4.300781 8.035156 4.238281 7.839844 4.21875 C 7.839844 4.21875 7.835938 4.214844 7.835938 4.214844 C 7.628906 4.199219 7.429688 4.222656 7.246094 4.289062 C 7.0625 4.347656 6.890625 4.453125 6.734375 4.59375 C 6.730469 4.597656 6.730469 4.597656 6.726562 4.601562 C 6.582031 4.742188 6.476562 4.90625 6.40625 5.089844 C 6.351562 5.238281 6.203125 5.316406 6.050781 5.28125 C 5.667969 5.1875 5.257812 5.273438 4.921875 5.515625 C 4.917969 5.515625 4.917969 5.519531 4.914062 5.519531 C 4.742188 5.652344 4.613281 5.800781 4.523438 5.96875 C 4.515625 5.984375 4.507812 6 4.503906 6.015625 C 3.441406 6.253906 2.601562 7.125 2.429688 8.222656 L 2.171875 8.1875 C 1.914062 8.152344 1.632812 8.261719 1.421875 8.472656 C 1.210938 8.683594 1.105469 8.964844 1.136719 9.222656 L 1.21875 9.816406 C 0.460938 10.3125 0 11.15625 0 12.066406 C 0 12.945312 0.425781 13.757812 1.144531 14.261719 C 1.460938 15.351562 2.46875 16.152344 3.664062 16.152344 L 14.847656 16.152344 C 15.011719 16.152344 15.140625 16.019531 15.140625 15.859375 C 15.140625 15.699219 15.011719 15.566406 14.847656 15.566406 L 3.664062 15.566406 C 2.539062 15.566406 1.625 14.652344 1.625 13.53125 C 1.625 9.988281 4.480469 7.046875 7.988281 6.976562 C 9.75 6.941406 11.417969 7.601562 12.671875 8.832031 C 13.929688 10.0625 14.621094 11.707031 14.621094 13.464844 C 14.621094 14.15625 14.882812 14.785156 15.308594 15.257812 C 15.320312 15.273438 15.335938 15.289062 15.351562 15.304688 C 15.351562 15.304688 15.351562 15.304688 15.355469 15.304688 C 15.84375 15.828125 16.539062 16.152344 17.308594 16.152344 C 18.792969 16.152344 20 14.945312 20 13.464844 C 20 11.558594 19.25 9.769531 17.890625 8.429688 Z M 17.257812 9.460938 C 17.265625 9.46875 17.277344 9.472656 17.285156 9.480469 C 17.328125 9.519531 17.367188 9.5625 17.402344 9.605469 C 17.417969 9.628906 17.4375 9.652344 17.453125 9.675781 C 17.464844 9.699219 17.480469 9.726562 17.492188 9.753906 C 17.515625 9.808594 17.539062 9.863281 17.554688 9.921875 C 17.566406 9.972656 17.570312 10.027344 17.574219 10.085938 C 17.574219 10.148438 17.570312 10.203125 17.5625 10.25 C 17.550781 10.304688 17.535156 10.359375 17.511719 10.410156 C 17.46875 10.507812 17.449219 10.609375 17.441406 10.722656 C 17.4375 10.820312 17.449219 10.917969 17.480469 11.027344 C 17.503906 11.117188 17.546875 11.210938 17.609375 11.304688 C 17.667969 11.390625 17.742188 11.46875 17.832031 11.539062 C 17.875 11.570312 17.914062 11.609375 17.949219 11.652344 C 17.980469 11.691406 18.007812 11.742188 18.035156 11.800781 C 18.054688 11.851562 18.070312 11.90625 18.082031 11.972656 C 18.089844 12.03125 18.09375 12.097656 18.089844 12.160156 C 18.082031 12.21875 18.074219 12.289062 18.050781 12.347656 C 18.050781 12.347656 18.050781 12.351562 18.050781 12.351562 C 18.039062 12.382812 18.027344 12.414062 18.015625 12.441406 C 18 12.46875 17.984375 12.496094 17.972656 12.515625 C 17.953125 12.542969 17.9375 12.566406 17.921875 12.585938 C 17.902344 12.609375 17.882812 12.628906 17.859375 12.648438 C 17.839844 12.667969 17.820312 12.683594 17.800781 12.699219 C 17.777344 12.714844 17.753906 12.726562 17.730469 12.738281 C 17.640625 12.785156 17.558594 12.84375 17.480469 12.921875 C 17.476562 12.925781 17.476562 12.925781 17.476562 12.925781 C 17.4375 12.964844 17.40625 13.003906 17.375 13.046875 C 17.34375 13.09375 17.316406 13.132812 17.296875 13.175781 C 17.273438 13.222656 17.257812 13.269531 17.242188 13.3125 C 17.226562 13.363281 17.214844 13.414062 17.207031 13.46875 C 17.207031 13.46875 17.207031 13.472656 17.207031 13.472656 C 17.191406 13.585938 17.195312 13.6875 17.210938 13.785156 C 17.21875 13.8125 17.21875 13.839844 17.222656 13.863281 C 17.222656 13.890625 17.222656 13.917969 17.21875 13.945312 C 17.214844 13.972656 17.210938 14 17.207031 14.027344 C 17.199219 14.054688 17.191406 14.082031 17.179688 14.113281 C 17.144531 14.21875 17.074219 14.324219 16.976562 14.417969 C 16.929688 14.460938 16.875 14.496094 16.820312 14.527344 C 16.765625 14.554688 16.707031 14.582031 16.65625 14.597656 C 16.652344 14.597656 16.652344 14.597656 16.648438 14.597656 C 16.539062 14.625 16.425781 14.625 16.324219 14.597656 C 16.226562 14.570312 16.121094 14.558594 16.011719 14.566406 C 15.886719 14.566406 15.78125 14.601562 15.714844 14.625 C 15.710938 14.625 15.710938 14.628906 15.710938 14.628906 C 15.667969 14.644531 15.632812 14.660156 15.59375 14.679688 C 15.433594 14.449219 15.3125 14.1875 15.253906 13.90625 C 15.253906 13.902344 15.257812 13.902344 15.257812 13.902344 C 16.195312 13.460938 16.804688 12.507812 16.804688 11.46875 C 16.804688 10.71875 16.492188 10.035156 15.984375 9.542969 C 16.144531 9.457031 16.277344 9.359375 16.386719 9.265625 C 16.515625 9.246094 16.648438 9.246094 16.796875 9.265625 C 16.953125 9.285156 17.117188 9.351562 17.257812 9.460938 Z M 5.910156 5.851562 C 5.914062 5.851562 5.914062 5.851562 5.917969 5.851562 C 6.363281 5.953125 6.796875 5.71875 6.953125 5.296875 C 6.992188 5.195312 7.054688 5.101562 7.136719 5.023438 C 7.226562 4.9375 7.328125 4.878906 7.429688 4.84375 C 7.433594 4.84375 7.4375 4.84375 7.4375 4.839844 C 7.542969 4.804688 7.660156 4.789062 7.78125 4.800781 C 7.890625 4.8125 8 4.847656 8.09375 4.902344 C 8.472656 5.140625 8.960938 5.058594 9.253906 4.710938 C 9.292969 4.667969 9.332031 4.628906 9.375 4.59375 C 9.417969 4.5625 9.464844 4.53125 9.519531 4.507812 C 9.542969 4.496094 9.570312 4.484375 9.597656 4.476562 C 9.625 4.464844 9.65625 4.460938 9.675781 4.453125 C 9.738281 4.441406 9.796875 4.433594 9.859375 4.433594 C 9.917969 4.433594 9.980469 4.441406 10.039062 4.453125 C 10.074219 4.460938 10.097656 4.46875 10.117188 4.476562 C 10.144531 4.484375 10.171875 4.496094 10.199219 4.507812 C 10.25 4.53125 10.300781 4.5625 10.34375 4.59375 C 10.386719 4.628906 10.425781 4.667969 10.464844 4.714844 C 10.753906 5.058594 11.242188 5.140625 11.621094 4.90625 C 11.714844 4.847656 11.824219 4.8125 11.933594 4.800781 C 12.058594 4.789062 12.175781 4.804688 12.277344 4.839844 C 12.28125 4.84375 12.285156 4.84375 12.285156 4.84375 C 12.390625 4.878906 12.488281 4.9375 12.582031 5.023438 C 12.664062 5.101562 12.722656 5.195312 12.761719 5.296875 C 12.917969 5.71875 13.355469 5.953125 13.800781 5.851562 C 13.800781 5.851562 13.804688 5.851562 13.804688 5.851562 C 14.019531 5.796875 14.253906 5.847656 14.449219 5.988281 C 14.550781 6.066406 14.628906 6.152344 14.679688 6.246094 C 14.707031 6.296875 14.730469 6.351562 14.742188 6.398438 C 14.757812 6.453125 14.769531 6.507812 14.773438 6.566406 C 14.808594 7.019531 15.171875 7.371094 15.617188 7.386719 C 15.726562 7.390625 15.835938 7.417969 15.9375 7.46875 C 15.988281 7.496094 16.035156 7.527344 16.082031 7.5625 C 16.105469 7.585938 16.125 7.601562 16.144531 7.621094 C 16.164062 7.640625 16.183594 7.664062 16.203125 7.6875 C 16.242188 7.734375 16.273438 7.785156 16.300781 7.835938 C 16.324219 7.886719 16.34375 7.941406 16.359375 8 C 16.386719 8.09375 16.390625 8.203125 16.371094 8.3125 C 16.347656 8.382812 16.175781 8.859375 15.457031 9.144531 C 15.207031 9 14.929688 8.890625 14.636719 8.835938 L 14.804688 8.199219 C 14.886719 7.898438 14.800781 7.585938 14.582031 7.363281 C 14.359375 7.140625 14.042969 7.054688 13.742188 7.136719 L 12.976562 7.339844 C 12.695312 6.132812 11.617188 5.273438 10.359375 5.273438 C 9.785156 5.273438 9.238281 5.449219 8.777344 5.785156 L 8.660156 5.632812 C 8.5 5.421875 8.226562 5.300781 7.925781 5.300781 C 7.628906 5.300781 7.355469 5.421875 7.195312 5.632812 L 6.59375 6.414062 C 6.210938 6.152344 5.769531 5.996094 5.308594 5.960938 C 5.496094 5.839844 5.710938 5.800781 5.910156 5.851562 Z M 9.316406 6.488281 L 9.132812 6.253906 C 9.492188 5.996094 9.914062 5.859375 10.359375 5.859375 C 11.347656 5.859375 12.195312 6.539062 12.410156 7.492188 L 12.070312 7.585938 C 12.066406 7.585938 12.066406 7.585938 12.066406 7.585938 C 11.238281 7.027344 10.304688 6.65625 9.316406 6.488281 Z M 5.085938 6.535156 C 5.390625 6.535156 5.6875 6.601562 5.960938 6.726562 C 4.964844 7.046875 4.046875 7.59375 3.269531 8.332031 L 3.011719 8.300781 C 3.171875 7.296875 4.050781 6.535156 5.085938 6.535156 Z M 1.835938 8.886719 C 1.914062 8.804688 2.019531 8.757812 2.097656 8.769531 L 2.769531 8.859375 C 2.414062 9.273438 2.109375 9.722656 1.859375 10.195312 L 1.71875 9.144531 C 1.707031 9.066406 1.753906 8.964844 1.835938 8.886719 Z M 0.585938 12.066406 C 0.585938 11.453125 0.855469 10.878906 1.304688 10.484375 L 1.324219 10.628906 C 1.34375 10.773438 1.40625 10.902344 1.496094 10.996094 C 1.214844 11.75 1.058594 12.546875 1.039062 13.367188 C 0.75 13.003906 0.585938 12.546875 0.585938 12.066406 Z M 7.976562 6.390625 C 7.753906 6.394531 7.535156 6.410156 7.316406 6.433594 L 7.660156 5.988281 C 7.707031 5.925781 7.8125 5.886719 7.925781 5.886719 C 8.042969 5.886719 8.144531 5.925781 8.191406 5.988281 L 8.507812 6.398438 C 8.332031 6.390625 8.15625 6.386719 7.976562 6.390625 Z M 12.660156 8.03125 L 13.890625 7.703125 C 14.035156 7.664062 14.132812 7.742188 14.164062 7.777344 C 14.199219 7.8125 14.277344 7.90625 14.238281 8.050781 L 13.890625 9.351562 C 13.652344 9.019531 13.382812 8.707031 13.082031 8.414062 C 12.949219 8.28125 12.804688 8.152344 12.660156 8.03125 Z M 14.308594 10.007812 C 14.328125 9.964844 14.34375 9.917969 14.355469 9.871094 L 14.484375 9.402344 C 15.480469 9.578125 16.21875 10.449219 16.21875 11.46875 C 16.21875 12.207031 15.828125 12.890625 15.203125 13.269531 C 15.171875 12.105469 14.863281 10.996094 14.308594 10.007812 Z M 17.308594 15.566406 C 16.839844 15.566406 16.40625 15.410156 16.054688 15.148438 C 16.09375 15.148438 16.128906 15.152344 16.164062 15.164062 C 16.164062 15.164062 16.167969 15.164062 16.167969 15.164062 C 16.371094 15.21875 16.585938 15.21875 16.796875 15.164062 C 16.910156 15.136719 17.007812 15.089844 17.09375 15.046875 C 17.097656 15.046875 17.101562 15.042969 17.105469 15.042969 C 17.199219 14.988281 17.289062 14.925781 17.371094 14.851562 C 17.371094 14.851562 17.371094 14.847656 17.375 14.847656 C 17.542969 14.691406 17.667969 14.503906 17.734375 14.304688 C 17.75 14.257812 17.765625 14.207031 17.777344 14.160156 C 17.777344 14.15625 17.78125 14.152344 17.78125 14.148438 C 17.789062 14.101562 17.796875 14.050781 17.800781 13.996094 C 17.808594 13.945312 17.808594 13.894531 17.808594 13.84375 C 17.808594 13.839844 17.808594 13.839844 17.808594 13.835938 C 17.804688 13.785156 17.796875 13.734375 17.789062 13.679688 C 17.78125 13.640625 17.78125 13.597656 17.789062 13.546875 C 17.789062 13.53125 17.792969 13.515625 17.800781 13.5 C 17.800781 13.5 17.800781 13.496094 17.800781 13.496094 C 17.808594 13.472656 17.816406 13.453125 17.820312 13.4375 C 17.824219 13.4375 17.824219 13.4375 17.824219 13.433594 C 17.828125 13.421875 17.839844 13.40625 17.855469 13.386719 C 17.855469 13.382812 17.859375 13.382812 17.859375 13.378906 C 17.867188 13.363281 17.878906 13.351562 17.890625 13.339844 C 17.925781 13.304688 17.960938 13.277344 17.996094 13.261719 C 18.042969 13.238281 18.085938 13.210938 18.128906 13.183594 C 18.132812 13.179688 18.136719 13.179688 18.136719 13.175781 C 18.175781 13.148438 18.21875 13.117188 18.257812 13.078125 C 18.292969 13.046875 18.332031 13.007812 18.363281 12.96875 C 18.367188 12.96875 18.367188 12.964844 18.371094 12.964844 C 18.402344 12.925781 18.429688 12.882812 18.464844 12.832031 C 18.488281 12.792969 18.519531 12.746094 18.542969 12.695312 C 18.542969 12.691406 18.546875 12.691406 18.546875 12.6875 C 18.566406 12.644531 18.585938 12.59375 18.601562 12.546875 C 18.644531 12.429688 18.664062 12.3125 18.671875 12.21875 C 18.683594 12.097656 18.675781 11.980469 18.664062 11.894531 C 18.664062 11.886719 18.664062 11.882812 18.660156 11.875 C 18.640625 11.765625 18.613281 11.664062 18.574219 11.570312 C 18.574219 11.570312 18.570312 11.566406 18.570312 11.5625 C 18.523438 11.457031 18.472656 11.371094 18.414062 11.292969 C 18.410156 11.292969 18.410156 11.289062 18.410156 11.289062 C 18.34375 11.207031 18.269531 11.132812 18.191406 11.074219 C 18.1875 11.070312 18.1875 11.070312 18.1875 11.070312 C 18.148438 11.042969 18.121094 11.011719 18.097656 10.980469 C 18.070312 10.9375 18.054688 10.90625 18.046875 10.878906 C 18.046875 10.875 18.046875 10.875 18.046875 10.871094 C 18.03125 10.824219 18.027344 10.785156 18.027344 10.753906 C 18.03125 10.707031 18.035156 10.671875 18.050781 10.640625 C 18.089844 10.550781 18.117188 10.460938 18.136719 10.363281 C 18.15625 10.277344 18.160156 10.179688 18.160156 10.070312 C 18.15625 9.96875 18.144531 9.871094 18.121094 9.78125 C 18.121094 9.78125 18.121094 9.777344 18.121094 9.777344 C 18.097656 9.683594 18.0625 9.59375 18.023438 9.503906 C 18 9.457031 17.976562 9.414062 17.953125 9.371094 C 17.953125 9.371094 17.949219 9.367188 17.949219 9.367188 C 17.941406 9.351562 17.929688 9.339844 17.921875 9.324219 C 18.886719 10.488281 19.414062 11.933594 19.414062 13.464844 C 19.414062 14.625 18.46875 15.566406 17.308594 15.566406 Z M 17.308594 15.566406 "/>
<path style=" stroke:none;fill-rule:nonzero;fill:rgb(0%,0%,0%);fill-opacity:1;" d="M 5.726562 9.960938 C 5.726562 10.121094 5.59375 10.253906 5.433594 10.253906 C 5.269531 10.253906 5.140625 10.121094 5.140625 9.960938 C 5.140625 9.800781 5.269531 9.667969 5.433594 9.667969 C 5.59375 9.667969 5.726562 9.800781 5.726562 9.960938 Z M 5.726562 9.960938 "/>
<path style=" stroke:none;fill-rule:nonzero;fill:rgb(0%,0%,0%);fill-opacity:1;" d="M 4.320312 11.132812 C 4.320312 11.292969 4.1875 11.425781 4.027344 11.425781 C 3.863281 11.425781 3.734375 11.292969 3.734375 11.132812 C 3.734375 10.972656 3.863281 10.839844 4.027344 10.839844 C 4.1875 10.839844 4.320312 10.972656 4.320312 11.132812 Z M 4.320312 11.132812 "/>
<path style=" stroke:none;fill-rule:nonzero;fill:rgb(0%,0%,0%);fill-opacity:1;" d="M 6.664062 12.070312 C 6.664062 12.230469 6.53125 12.363281 6.371094 12.363281 C 6.207031 12.363281 6.078125 12.230469 6.078125 12.070312 C 6.078125 11.910156 6.207031 11.777344 6.371094 11.777344 C 6.53125 11.777344 6.664062 11.910156 6.664062 12.070312 Z M 6.664062 12.070312 "/>
<path style=" stroke:none;fill-rule:nonzero;fill:rgb(0%,0%,0%);fill-opacity:1;" d="M 4.359375 9.726562 C 4.359375 9.886719 4.226562 10.019531 4.066406 10.019531 C 3.902344 10.019531 3.773438 9.886719 3.773438 9.726562 C 3.773438 9.566406 3.902344 9.433594 4.066406 9.433594 C 4.226562 9.433594 4.359375 9.566406 4.359375 9.726562 Z M 4.359375 9.726562 "/>
<path style=" stroke:none;fill-rule:nonzero;fill:rgb(0%,0%,0%);fill-opacity:1;" d="M 7.875 8.554688 C 7.875 8.714844 7.742188 8.847656 7.582031 8.847656 C 7.417969 8.847656 7.289062 8.714844 7.289062 8.554688 C 7.289062 8.394531 7.417969 8.261719 7.582031 8.261719 C 7.742188 8.261719 7.875 8.394531 7.875 8.554688 Z M 7.875 8.554688 "/>
<path style=" stroke:none;fill-rule:nonzero;fill:rgb(0%,0%,0%);fill-opacity:1;" d="M 9.046875 11.289062 C 9.046875 11.449219 8.914062 11.582031 8.753906 11.582031 C 8.589844 11.582031 8.460938 11.449219 8.460938 11.289062 C 8.460938 11.128906 8.589844 10.996094 8.753906 10.996094 C 8.914062 10.996094 9.046875 11.128906 9.046875 11.289062 Z M 9.046875 11.289062 "/>
<path style=" stroke:none;fill-rule:nonzero;fill:rgb(0%,0%,0%);fill-opacity:1;" d="M 10.21875 9.335938 C 10.21875 9.496094 10.085938 9.628906 9.925781 9.628906 C 9.761719 9.628906 9.632812 9.496094 9.632812 9.335938 C 9.632812 9.175781 9.761719 9.042969 9.925781 9.042969 C 10.085938 9.042969 10.21875 9.175781 10.21875 9.335938 Z M 10.21875 9.335938 "/>
<path style=" stroke:none;fill-rule:nonzero;fill:rgb(0%,0%,0%);fill-opacity:1;" d="M 12.953125 11.679688 C 12.953125 11.839844 12.820312 11.972656 12.660156 11.972656 C 12.496094 11.972656 12.367188 11.839844 12.367188 11.679688 C 12.367188 11.519531 12.496094 11.386719 12.660156 11.386719 C 12.820312 11.386719 12.953125 11.519531 12.953125 11.679688 Z M 12.953125 11.679688 "/>
</g>
</svg>
