<?xml version="1.0" encoding="UTF-8"?>
<svg xmlns="http://www.w3.org/2000/svg" xmlns:xlink="http://www.w3.org/1999/xlink" width="35pt" height="35pt" viewBox="0 0 35 35" version="1.1">
<g id="surface1">
<path style=" stroke:none;fill-rule:nonzero;fill:rgb(69.803922%,47.45098%,27.45098%);fill-opacity:1;" d="M 24.839844 14.117188 C 24.839844 14.730469 24.710938 15.332031 24.480469 15.886719 L 24.472656 15.894531 C 24.164062 15.496094 23.6875 15.246094 23.144531 15.246094 L 22.148438 15.246094 C 21.375 15.246094 20.664062 14.808594 20.324219 14.117188 C 19.597656 14.117188 18.910156 13.824219 18.394531 13.316406 L 18.066406 12.980469 C 18.066406 12.980469 18.019531 13.078125 17.949219 13.207031 C 17.675781 13.761719 17.105469 14.117188 16.480469 14.117188 C 16.058594 14.117188 15.652344 13.953125 15.347656 13.660156 L 15.246094 13.550781 C 15.074219 14.054688 14.753906 14.472656 14.339844 14.773438 C 13.933594 15.074219 13.425781 15.246094 12.894531 15.246094 L 11.855469 15.246094 C 11.417969 15.246094 11.019531 15.410156 10.71875 15.683594 C 10.355469 14.832031 10.160156 13.917969 10.160156 12.980469 C 10.160156 12.367188 10.417969 11.800781 10.820312 11.386719 C 11.230469 10.980469 11.800781 10.726562 12.421875 10.726562 L 12.460938 10.675781 C 13.171875 9.964844 14.007812 9.414062 14.917969 9.042969 C 15.824219 8.667969 16.800781 8.46875 17.808594 8.46875 C 19.441406 8.46875 21.027344 8.996094 22.339844 9.980469 L 23.03125 10.5 C 23.597656 10.929688 24.050781 11.472656 24.355469 12.09375 C 24.671875 12.714844 24.839844 13.398438 24.839844 14.117188 Z M 24.839844 14.117188 "/>
<path style=" stroke:none;fill-rule:nonzero;fill:rgb(70.588235%,86.666667%,49.803922%);fill-opacity:1;" d="M 21.449219 34.433594 L 10.160156 34.433594 C 10.472656 34.433594 10.726562 34.179688 10.726562 33.871094 L 10.726562 32.746094 C 10.726562 32.429688 10.472656 32.175781 10.160156 32.175781 L 9.597656 32.175781 L 9.597656 28.410156 C 10.027344 28.097656 10.371094 27.609375 10.554688 27.027344 L 10.5625 27.027344 C 11.457031 26.339844 12.53125 25.875 13.71875 25.703125 L 15.804688 25.402344 L 17.5 28.792969 L 19.195312 25.402344 L 21.28125 25.703125 C 22.410156 25.859375 23.441406 26.296875 24.308594 26.925781 C 24.390625 27.390625 24.617188 27.808594 24.9375 28.128906 C 25.074219 28.265625 25.230469 28.390625 25.402344 28.484375 L 25.402344 32.175781 L 24.839844 32.175781 C 24.527344 32.175781 24.273438 32.429688 24.273438 32.746094 L 24.273438 33.871094 C 24.273438 34.179688 24.527344 34.433594 24.839844 34.433594 Z M 21.449219 34.433594 "/>
<path style=" stroke:none;fill-rule:nonzero;fill:rgb(80%,81.960784%,85.098039%);fill-opacity:1;" d="M 10.726562 25.96875 C 10.726562 26.339844 10.671875 26.699219 10.554688 27.027344 C 10.371094 27.609375 10.027344 28.097656 9.597656 28.410156 C 9.261719 28.65625 8.878906 28.792969 8.46875 28.792969 C 8.050781 28.792969 7.667969 28.65625 7.339844 28.410156 C 6.660156 27.917969 6.207031 27.007812 6.207031 25.96875 C 6.207031 24.410156 7.21875 23.144531 8.46875 23.144531 C 9.714844 23.144531 10.726562 24.410156 10.726562 25.96875 Z M 10.726562 25.96875 "/>
<path style=" stroke:none;fill-rule:nonzero;fill:rgb(80%,81.960784%,85.098039%);fill-opacity:1;" d="M 26.53125 26.53125 L 28.792969 26.53125 C 28.792969 27.371094 28.339844 28.097656 27.660156 28.484375 C 27.332031 28.675781 26.949219 28.792969 26.53125 28.792969 C 26.121094 28.792969 25.738281 28.675781 25.402344 28.484375 C 25.230469 28.390625 25.074219 28.265625 24.9375 28.128906 C 24.617188 27.808594 24.390625 27.390625 24.308594 26.925781 C 24.289062 26.796875 24.273438 26.667969 24.273438 26.53125 Z M 26.53125 26.53125 "/>
<path style=" stroke:none;fill-rule:nonzero;fill:rgb(80%,81.960784%,85.098039%);fill-opacity:1;" d="M 26.53125 32.175781 L 26.53125 33.304688 C 26.53125 32.683594 26.023438 32.175781 25.402344 32.175781 L 25.402344 28.484375 C 25.738281 28.675781 26.121094 28.792969 26.53125 28.792969 C 26.949219 28.792969 27.332031 28.675781 27.660156 28.484375 L 27.660156 31.050781 C 27.042969 31.050781 26.53125 31.554688 26.53125 32.175781 Z M 26.53125 32.175781 "/>
<path style=" stroke:none;fill-rule:nonzero;fill:rgb(80%,81.960784%,85.098039%);fill-opacity:1;" d="M 9.597656 28.410156 L 9.597656 32.175781 C 8.976562 32.175781 8.46875 32.683594 8.46875 33.304688 L 8.46875 32.175781 C 8.46875 31.554688 7.957031 31.050781 7.339844 31.050781 L 7.339844 28.410156 C 7.667969 28.65625 8.050781 28.792969 8.46875 28.792969 C 8.878906 28.792969 9.261719 28.65625 9.597656 28.410156 Z M 9.597656 28.410156 "/>
<path style=" stroke:none;fill-rule:nonzero;fill:rgb(94.117647%,81.568627%,70.588235%);fill-opacity:1;" d="M 10.160156 32.175781 C 10.472656 32.175781 10.726562 32.429688 10.726562 32.746094 L 10.726562 33.871094 C 10.726562 34.179688 10.472656 34.433594 10.160156 34.433594 L 9.597656 34.433594 C 9.285156 34.433594 9.003906 34.308594 8.796875 34.105469 C 8.59375 33.898438 8.46875 33.621094 8.46875 33.304688 C 8.46875 32.683594 8.976562 32.175781 9.597656 32.175781 Z M 10.160156 32.175781 "/>
<path style=" stroke:none;fill-rule:nonzero;fill:rgb(94.117647%,81.568627%,70.588235%);fill-opacity:1;" d="M 8.46875 32.175781 L 8.46875 33.304688 C 8.46875 33.925781 7.957031 34.433594 7.339844 34.433594 L 6.773438 34.433594 C 6.464844 34.433594 6.207031 34.179688 6.207031 33.871094 L 6.207031 31.617188 C 6.207031 31.300781 6.464844 31.050781 6.773438 31.050781 L 7.339844 31.050781 C 7.957031 31.050781 8.46875 31.554688 8.46875 32.175781 Z M 8.46875 32.175781 "/>
<path style=" stroke:none;fill-rule:nonzero;fill:rgb(94.117647%,81.568627%,70.588235%);fill-opacity:1;" d="M 27.660156 31.050781 L 28.226562 31.050781 C 28.535156 31.050781 28.792969 31.300781 28.792969 31.617188 L 28.792969 33.871094 C 28.792969 34.179688 28.535156 34.433594 28.226562 34.433594 L 27.660156 34.433594 C 27.042969 34.433594 26.53125 33.925781 26.53125 33.304688 L 26.53125 32.175781 C 26.53125 31.554688 27.042969 31.050781 27.660156 31.050781 Z M 27.660156 31.050781 "/>
<path style=" stroke:none;fill-rule:nonzero;fill:rgb(94.117647%,81.568627%,70.588235%);fill-opacity:1;" d="M 25.402344 32.175781 C 26.023438 32.175781 26.53125 32.683594 26.53125 33.304688 C 26.53125 33.621094 26.40625 33.898438 26.203125 34.105469 C 25.996094 34.308594 25.714844 34.433594 25.402344 34.433594 L 24.839844 34.433594 C 24.527344 34.433594 24.273438 34.179688 24.273438 33.871094 L 24.273438 32.746094 C 24.273438 32.429688 24.527344 32.175781 24.839844 32.175781 Z M 25.402344 32.175781 "/>
<path style=" stroke:none;fill-rule:nonzero;fill:rgb(94.117647%,81.568627%,70.588235%);fill-opacity:1;" d="M 24.472656 15.894531 C 24.707031 16.179688 24.839844 16.542969 24.839844 16.933594 C 24.839844 17.402344 24.644531 17.828125 24.34375 18.128906 C 24.035156 18.4375 23.613281 18.628906 23.144531 18.628906 L 22.578125 18.628906 L 22.578125 15.246094 L 23.144531 15.246094 C 23.6875 15.246094 24.164062 15.496094 24.472656 15.894531 Z M 24.472656 15.894531 "/>
<path style=" stroke:none;fill-rule:nonzero;fill:rgb(94.117647%,81.568627%,70.588235%);fill-opacity:1;" d="M 12.894531 15.246094 C 13.425781 15.246094 13.933594 15.074219 14.339844 14.773438 C 14.753906 14.472656 15.074219 14.054688 15.246094 13.550781 L 15.347656 13.660156 C 15.652344 13.953125 16.058594 14.117188 16.480469 14.117188 C 17.105469 14.117188 17.675781 13.761719 17.949219 13.207031 C 18.019531 13.078125 18.066406 12.980469 18.066406 12.980469 L 18.394531 13.316406 C 18.910156 13.824219 19.597656 14.117188 20.324219 14.117188 C 20.664062 14.808594 21.375 15.246094 22.148438 15.246094 L 22.578125 15.246094 L 22.578125 19.230469 C 22.578125 20.9375 21.613281 22.503906 20.082031 23.261719 L 19.503906 23.550781 C 19.3125 23.644531 19.195312 23.84375 19.195312 24.0625 L 19.195312 25.402344 L 17.5 28.792969 L 15.804688 25.402344 L 15.804688 24.0625 C 15.804688 23.84375 15.6875 23.644531 15.496094 23.550781 L 14.917969 23.261719 C 13.386719 22.503906 12.421875 20.9375 12.421875 19.230469 L 12.421875 15.246094 Z M 12.894531 15.246094 "/>
<path style=" stroke:none;fill-rule:nonzero;fill:rgb(94.117647%,81.568627%,70.588235%);fill-opacity:1;" d="M 12.421875 15.246094 L 12.421875 18.628906 L 11.855469 18.628906 C 10.917969 18.628906 10.160156 17.875 10.160156 16.933594 C 10.160156 16.46875 10.355469 16.042969 10.65625 15.738281 C 10.675781 15.714844 10.699219 15.703125 10.71875 15.683594 C 11.019531 15.410156 11.417969 15.246094 11.855469 15.246094 Z M 12.421875 15.246094 "/>
<path style=" stroke:none;fill-rule:nonzero;fill:rgb(70.588235%,86.666667%,49.803922%);fill-opacity:1;" d="M 3.949219 15.246094 L 2.824219 15.246094 C 1.574219 15.246094 0.566406 14.230469 0.566406 12.980469 L 1.695312 12.980469 C 2.941406 12.980469 3.949219 13.992188 3.949219 15.246094 Z M 3.949219 15.246094 "/>
<path style=" stroke:none;fill-rule:nonzero;fill:rgb(100%,50.980392%,43.137255%);fill-opacity:1;" d="M 2.589844 15.246094 C 3.097656 15.246094 3.589844 15.441406 3.949219 15.804688 C 4.3125 15.441406 4.804688 15.246094 5.3125 15.246094 L 5.414062 15.246094 C 5.949219 15.246094 6.425781 15.457031 6.773438 15.804688 C 7.121094 16.152344 7.339844 16.636719 7.339844 17.164062 C 7.339844 17.753906 7.175781 18.328125 6.878906 18.832031 L 5.980469 20.332031 C 5.777344 20.671875 5.394531 20.882812 4.988281 20.882812 C 4.683594 20.882812 4.394531 20.769531 4.175781 20.550781 L 3.949219 20.324219 L 3.726562 20.550781 C 3.507812 20.769531 3.21875 20.882812 2.910156 20.882812 C 2.507812 20.882812 2.125 20.671875 1.925781 20.332031 L 1.027344 18.832031 C 0.722656 18.328125 0.566406 17.753906 0.566406 17.164062 C 0.566406 16.105469 1.429688 15.246094 2.488281 15.246094 Z M 2.589844 15.246094 "/>
<path style=" stroke:none;fill-rule:nonzero;fill:rgb(41.176471%,83.921569%,95.686275%);fill-opacity:1;" d="M 34.433594 18.472656 L 34.433594 18.628906 C 34.433594 19.566406 34.058594 20.410156 33.441406 21.019531 C 32.832031 21.636719 31.984375 22.019531 31.050781 22.019531 C 29.183594 22.019531 27.660156 20.5 27.660156 18.628906 L 27.660156 18.472656 C 27.660156 17.839844 27.84375 17.214844 28.175781 16.671875 L 30.1875 13.464844 C 30.371094 13.167969 30.699219 12.980469 31.050781 12.980469 C 31.398438 12.980469 31.726562 13.167969 31.910156 13.464844 L 33.917969 16.671875 C 34.253906 17.214844 34.433594 17.839844 34.433594 18.472656 Z M 34.433594 18.472656 "/>
<path style=" stroke:none;fill-rule:nonzero;fill:rgb(90.196078%,91.372549%,92.941176%);fill-opacity:1;" d="M 23.707031 2.253906 C 23.707031 2.691406 23.542969 3.089844 23.269531 3.382812 C 23.542969 3.683594 23.707031 4.082031 23.707031 4.519531 C 23.707031 5.457031 22.957031 6.207031 22.019531 6.207031 C 21.082031 6.207031 20.324219 5.457031 20.324219 4.519531 L 18.859375 4.519531 L 18.859375 2.253906 L 20.324219 2.253906 C 20.324219 1.320312 21.082031 0.566406 22.019531 0.566406 C 22.957031 0.566406 23.707031 1.320312 23.707031 2.253906 Z M 23.707031 2.253906 "/>
<path style=" stroke:none;fill-rule:nonzero;fill:rgb(81.176471%,61.960784%,46.27451%);fill-opacity:1;" d="M 18.859375 2.253906 L 18.859375 4.519531 C 18.253906 5.515625 16.863281 6.207031 15.246094 6.207031 C 13.058594 6.207031 11.292969 4.941406 11.292969 3.382812 C 11.292969 1.832031 13.058594 0.566406 15.246094 0.566406 C 16.863281 0.566406 18.253906 1.257812 18.859375 2.253906 Z M 18.859375 2.253906 "/>
<path style=" stroke:none;fill-rule:nonzero;fill:rgb(0%,0%,0%);fill-opacity:1;" d="M 28.226562 25.96875 L 27.097656 25.96875 L 27.097656 23.707031 L 25.96875 23.707031 L 25.96875 25.96875 L 24.839844 25.96875 L 24.839844 23.707031 L 23.707031 23.707031 L 23.707031 25.910156 C 22.976562 25.527344 22.183594 25.257812 21.363281 25.144531 L 19.753906 24.917969 L 19.753906 24.054688 L 20.335938 23.769531 C 22.066406 22.902344 23.144531 21.164062 23.144531 19.222656 L 23.144531 19.195312 C 24.390625 19.195312 25.402344 18.183594 25.402344 16.933594 C 25.402344 16.527344 25.285156 16.152344 25.101562 15.824219 C 25.300781 15.277344 25.402344 14.703125 25.402344 14.117188 C 25.402344 12.523438 24.644531 11.003906 23.371094 10.050781 L 22.675781 9.527344 C 21.28125 8.476562 19.550781 7.902344 17.808594 7.902344 C 15.6875 7.902344 13.699219 8.707031 12.175781 10.171875 C 10.730469 10.292969 9.597656 11.511719 9.597656 12.980469 C 9.597656 13.871094 9.761719 14.738281 10.070312 15.566406 C 9.78125 15.949219 9.597656 16.417969 9.597656 16.933594 C 9.597656 18.183594 10.609375 19.195312 11.855469 19.195312 L 11.855469 19.222656 C 11.855469 21.164062 12.933594 22.90625 14.664062 23.769531 L 15.246094 24.054688 L 15.246094 24.917969 L 13.636719 25.144531 C 12.816406 25.257812 12.023438 25.53125 11.285156 25.914062 C 11.265625 24.070312 10.007812 22.578125 8.46875 22.578125 C 6.910156 22.578125 5.644531 24.097656 5.644531 25.96875 C 5.644531 27.070312 6.089844 28.054688 6.773438 28.667969 L 6.773438 30.480469 C 6.152344 30.480469 5.644531 30.988281 5.644531 31.617188 L 5.644531 33.871094 C 5.644531 34.496094 6.152344 35 6.773438 35 L 7.339844 35 C 7.773438 35 8.167969 34.828125 8.46875 34.5625 C 8.769531 34.828125 9.160156 35 9.597656 35 L 25.402344 35 C 25.839844 35 26.230469 34.828125 26.53125 34.5625 C 26.832031 34.828125 27.226562 35 27.660156 35 L 28.226562 35 C 28.847656 35 29.355469 34.496094 29.355469 33.871094 L 29.355469 31.617188 C 29.355469 30.988281 28.847656 30.480469 28.226562 30.480469 L 28.226562 28.773438 C 28.910156 28.261719 29.355469 27.453125 29.355469 26.53125 L 29.355469 23.707031 L 28.226562 23.707031 Z M 26.53125 28.226562 C 25.800781 28.226562 25.175781 27.753906 24.945312 27.097656 L 28.121094 27.097656 C 27.890625 27.753906 27.269531 28.226562 26.53125 28.226562 Z M 23.144531 18.066406 L 23.144531 15.804688 C 23.769531 15.804688 24.273438 16.308594 24.273438 16.933594 C 24.273438 17.5625 23.769531 18.066406 23.144531 18.066406 Z M 10.726562 16.933594 C 10.726562 16.308594 11.230469 15.804688 11.855469 15.804688 L 11.855469 18.066406 C 11.230469 18.066406 10.726562 17.5625 10.726562 16.933594 Z M 12.421875 14.675781 L 11.855469 14.675781 C 11.550781 14.675781 11.273438 14.738281 11.011719 14.847656 C 10.820312 14.246094 10.726562 13.625 10.726562 12.980469 C 10.726562 12.050781 11.484375 11.292969 12.421875 11.292969 L 12.652344 11.292969 L 12.863281 11.082031 C 14.183594 9.761719 15.941406 9.03125 17.808594 9.03125 C 19.304688 9.03125 20.792969 9.527344 21.996094 10.433594 L 22.695312 10.949219 C 23.6875 11.695312 24.273438 12.878906 24.273438 14.117188 C 24.273438 14.394531 24.238281 14.667969 24.183594 14.941406 C 23.871094 14.777344 23.523438 14.675781 23.144531 14.675781 L 22.148438 14.675781 C 21.589844 14.675781 21.082031 14.363281 20.828125 13.863281 L 20.671875 13.550781 L 20.324219 13.550781 C 19.753906 13.550781 19.195312 13.316406 18.792969 12.914062 L 17.910156 12.03125 L 17.453125 12.953125 C 17.261719 13.316406 16.890625 13.550781 16.480469 13.550781 C 16.199219 13.550781 15.941406 13.441406 15.742188 13.246094 L 14.992188 12.515625 L 14.703125 13.371094 C 14.445312 14.152344 13.71875 14.675781 12.894531 14.675781 Z M 15.167969 22.757812 C 13.824219 22.085938 12.980469 20.734375 12.980469 19.222656 L 12.980469 15.804688 C 14 15.777344 14.910156 15.246094 15.441406 14.417969 C 15.757812 14.589844 16.113281 14.675781 16.480469 14.675781 C 17.152344 14.675781 17.765625 14.382812 18.175781 13.882812 C 18.691406 14.320312 19.324219 14.589844 19.988281 14.65625 C 20.445312 15.339844 21.191406 15.761719 22.019531 15.804688 L 22.019531 19.222656 C 22.019531 20.734375 21.175781 22.085938 19.832031 22.757812 L 19.25 23.050781 C 18.867188 23.242188 18.628906 23.632812 18.628906 24.054688 L 18.628906 25.273438 L 17.5 27.527344 L 16.371094 25.273438 L 16.371094 24.054688 C 16.371094 23.625 16.132812 23.242188 15.75 23.050781 Z M 8.46875 23.707031 C 9.398438 23.707031 10.160156 24.726562 10.160156 25.96875 C 10.160156 27.214844 9.398438 28.226562 8.46875 28.226562 C 7.535156 28.226562 6.773438 27.214844 6.773438 25.96875 C 6.773438 24.726562 7.535156 23.707031 8.46875 23.707031 Z M 8.46875 29.355469 C 8.660156 29.355469 8.851562 29.332031 9.03125 29.285156 L 9.03125 31.71875 C 9.011719 31.726562 8.988281 31.726562 8.96875 31.738281 C 8.816406 31.199219 8.421875 30.777344 7.902344 30.589844 L 7.902344 29.285156 C 8.085938 29.332031 8.269531 29.355469 8.46875 29.355469 Z M 7.339844 33.871094 L 6.773438 33.871094 L 6.773438 31.617188 L 7.339844 31.617188 C 7.648438 31.617188 7.902344 31.871094 7.902344 32.175781 L 7.902344 33.304688 C 7.902344 33.621094 7.648438 33.871094 7.339844 33.871094 Z M 9.597656 33.871094 C 9.285156 33.871094 9.03125 33.621094 9.03125 33.304688 C 9.03125 32.996094 9.285156 32.746094 9.597656 32.746094 L 10.160156 32.746094 L 10.160156 33.871094 Z M 22.101562 33.871094 L 22.613281 30.285156 L 21.285156 28.957031 L 20.488281 29.75 L 21.417969 30.679688 L 20.957031 33.871094 L 14.042969 33.871094 L 13.582031 30.6875 L 14.511719 29.757812 L 13.714844 28.957031 L 12.386719 30.285156 L 12.898438 33.871094 L 11.292969 33.871094 L 11.292969 32.746094 C 11.292969 32.121094 10.785156 31.617188 10.160156 31.617188 L 10.160156 28.667969 C 10.527344 28.339844 10.828125 27.902344 11.027344 27.398438 C 11.839844 26.804688 12.796875 26.40625 13.800781 26.261719 L 15.484375 26.019531 L 17.5 30.050781 L 19.515625 26.019531 L 21.199219 26.257812 C 22.140625 26.394531 23.042969 26.753906 23.824219 27.289062 C 23.996094 27.890625 24.355469 28.410156 24.839844 28.773438 L 24.839844 31.617188 C 24.214844 31.617188 23.707031 32.121094 23.707031 32.746094 L 23.707031 33.871094 Z M 25.402344 33.871094 L 24.839844 33.871094 L 24.839844 32.746094 L 25.402344 32.746094 C 25.714844 32.746094 25.96875 32.996094 25.96875 33.304688 C 25.96875 33.621094 25.714844 33.871094 25.402344 33.871094 Z M 28.226562 33.871094 L 27.660156 33.871094 C 27.351562 33.871094 27.097656 33.621094 27.097656 33.304688 L 27.097656 32.175781 C 27.097656 31.871094 27.351562 31.617188 27.660156 31.617188 L 28.226562 31.617188 Z M 27.097656 30.589844 C 26.578125 30.777344 26.183594 31.199219 26.03125 31.738281 C 26.011719 31.726562 25.988281 31.726562 25.96875 31.71875 L 25.96875 29.300781 C 26.148438 29.332031 26.339844 29.355469 26.53125 29.355469 C 26.730469 29.355469 26.914062 29.332031 27.097656 29.300781 Z M 27.097656 30.589844 "/>
<path style=" stroke:none;fill-rule:nonzero;fill:rgb(0%,0%,0%);fill-opacity:1;" d="M 20.882812 16.933594 C 20.882812 17.246094 20.636719 17.5 20.324219 17.5 C 20.007812 17.5 19.753906 17.246094 19.753906 16.933594 C 19.753906 16.625 20.007812 16.371094 20.324219 16.371094 C 20.636719 16.371094 20.882812 16.625 20.882812 16.933594 Z M 20.882812 16.933594 "/>
<path style=" stroke:none;fill-rule:nonzero;fill:rgb(0%,0%,0%);fill-opacity:1;" d="M 15.246094 16.933594 C 15.246094 17.246094 14.992188 17.5 14.675781 17.5 C 14.363281 17.5 14.117188 17.246094 14.117188 16.933594 C 14.117188 16.625 14.363281 16.371094 14.675781 16.371094 C 14.992188 16.371094 15.246094 16.625 15.246094 16.933594 Z M 15.246094 16.933594 "/>
<path style=" stroke:none;fill-rule:nonzero;fill:rgb(0%,0%,0%);fill-opacity:1;" d="M 19.367188 21.316406 L 18.621094 20.464844 C 18 21.007812 17 21.007812 16.386719 20.464844 L 15.640625 21.316406 C 16.152344 21.765625 16.816406 22.019531 17.5 22.019531 C 18.191406 22.019531 18.847656 21.765625 19.367188 21.316406 Z M 19.367188 21.316406 "/>
<path style=" stroke:none;fill-rule:nonzero;fill:rgb(0%,0%,0%);fill-opacity:1;" d="M 17.183594 19.699219 L 17.816406 19.386719 C 18.082031 19.25 18.277344 19.019531 18.375 18.730469 C 18.472656 18.449219 18.449219 18.144531 18.3125 17.871094 L 18.066406 17.371094 L 18.066406 16.371094 L 16.933594 16.371094 L 16.933594 17.5 C 16.933594 17.589844 16.953125 17.675781 16.996094 17.753906 L 17.308594 18.375 L 16.6875 18.691406 Z M 17.183594 19.699219 "/>
<path style=" stroke:none;fill-rule:nonzero;fill:rgb(0%,0%,0%);fill-opacity:1;" d="M 15.246094 6.773438 C 16.863281 6.773438 18.363281 6.117188 19.160156 5.078125 L 19.832031 5.078125 C 20.078125 6.058594 20.964844 6.773438 22.019531 6.773438 C 23.261719 6.773438 24.273438 5.761719 24.273438 4.519531 C 24.273438 4.113281 24.164062 3.730469 23.964844 3.382812 C 24.164062 3.042969 24.273438 2.660156 24.273438 2.253906 C 24.273438 1.011719 23.261719 0 22.019531 0 C 20.964844 0 20.078125 0.71875 19.832031 1.695312 L 19.160156 1.695312 C 18.363281 0.65625 16.863281 0 15.246094 0 C 12.75 0 10.726562 1.519531 10.726562 3.382812 C 10.726562 5.257812 12.75 6.773438 15.246094 6.773438 Z M 15.246094 1.128906 C 16.617188 1.128906 17.847656 1.6875 18.382812 2.550781 L 18.546875 2.824219 L 20.882812 2.824219 L 20.882812 2.253906 C 20.882812 1.632812 21.394531 1.128906 22.019531 1.128906 C 22.640625 1.128906 23.144531 1.632812 23.144531 2.253906 C 23.144531 2.613281 22.980469 2.855469 22.851562 3.007812 L 22.511719 3.382812 L 22.851562 3.765625 C 22.980469 3.917969 23.144531 4.164062 23.144531 4.519531 C 23.144531 5.140625 22.640625 5.644531 22.019531 5.644531 C 21.394531 5.644531 20.882812 5.140625 20.882812 4.519531 L 20.882812 3.949219 L 18.546875 3.949219 L 18.382812 4.222656 C 17.847656 5.085938 16.617188 5.644531 15.246094 5.644531 C 13.40625 5.644531 11.855469 4.613281 11.855469 3.382812 C 11.855469 2.160156 13.40625 1.128906 15.246094 1.128906 Z M 15.246094 1.128906 "/>
<path style=" stroke:none;fill-rule:nonzero;fill:rgb(0%,0%,0%);fill-opacity:1;" d="M 34.398438 16.378906 L 32.386719 13.167969 C 32.101562 12.695312 31.597656 12.421875 31.050781 12.421875 C 30.503906 12.421875 29.996094 12.695312 29.707031 13.167969 L 27.699219 16.378906 C 27.300781 17.007812 27.097656 17.730469 27.097656 18.472656 L 27.097656 18.628906 C 27.097656 20.808594 28.867188 22.578125 31.050781 22.578125 C 33.230469 22.578125 35 20.808594 35 18.628906 L 35 18.472656 C 35 17.730469 34.792969 17.007812 34.398438 16.378906 Z M 33.871094 18.628906 C 33.871094 20.1875 32.605469 21.449219 31.050781 21.449219 C 29.488281 21.449219 28.226562 20.1875 28.226562 18.628906 L 28.226562 18.472656 C 28.226562 17.945312 28.375 17.425781 28.65625 16.972656 L 30.667969 13.761719 C 30.832031 13.496094 31.269531 13.496094 31.433594 13.761719 L 33.441406 16.972656 C 33.722656 17.425781 33.871094 17.945312 33.871094 18.472656 Z M 33.871094 18.628906 "/>
<path style=" stroke:none;fill-rule:nonzero;fill:rgb(0%,0%,0%);fill-opacity:1;" d="M 6.464844 20.617188 L 7.363281 19.121094 C 7.71875 18.53125 7.902344 17.855469 7.902344 17.171875 C 7.902344 15.796875 6.789062 14.675781 5.414062 14.675781 L 5.3125 14.675781 C 5.039062 14.675781 4.769531 14.722656 4.519531 14.8125 L 4.519531 11.292969 L 3.382812 11.292969 L 3.382812 13.003906 C 2.910156 12.640625 2.332031 12.421875 1.695312 12.421875 L 0 12.421875 L 0 12.980469 C 0 13.863281 0.410156 14.636719 1.039062 15.15625 C 0.410156 15.605469 0 16.339844 0 17.171875 C 0 17.855469 0.183594 18.53125 0.539062 19.121094 L 1.433594 20.617188 C 1.75 21.128906 2.308594 21.449219 2.910156 21.449219 C 3.292969 21.449219 3.65625 21.328125 3.949219 21.101562 C 4.253906 21.328125 4.613281 21.449219 4.988281 21.449219 C 5.589844 21.449219 6.160156 21.128906 6.464844 20.617188 Z M 1.695312 13.550781 C 2.425781 13.550781 3.054688 14.019531 3.289062 14.675781 L 2.824219 14.675781 C 2.085938 14.675781 1.457031 14.207031 1.222656 13.550781 Z M 4.582031 20.152344 L 3.949219 19.523438 L 3.324219 20.152344 C 3.070312 20.40625 2.589844 20.351562 2.40625 20.035156 L 1.511719 18.539062 C 1.257812 18.128906 1.128906 17.652344 1.128906 17.171875 C 1.128906 16.417969 1.742188 15.804688 2.496094 15.804688 L 2.589844 15.804688 C 2.953125 15.804688 3.292969 15.949219 3.554688 16.207031 L 3.949219 16.605469 L 4.347656 16.207031 C 4.605469 15.949219 4.949219 15.804688 5.3125 15.804688 L 5.414062 15.804688 C 6.167969 15.804688 6.773438 16.417969 6.773438 17.171875 C 6.773438 17.652344 6.644531 18.128906 6.390625 18.539062 L 5.496094 20.035156 C 5.3125 20.351562 4.832031 20.40625 4.582031 20.152344 Z M 4.582031 20.152344 "/>
<path style=" stroke:none;fill-rule:nonzero;fill:rgb(0%,0%,0%);fill-opacity:1;" d="M 9.898438 5.605469 L 9.289062 4.65625 C 7.246094 5.96875 5.515625 7.773438 4.300781 9.878906 L 5.277344 10.445312 C 6.40625 8.496094 8.003906 6.824219 9.898438 5.605469 Z M 9.898438 5.605469 "/>
<path style=" stroke:none;fill-rule:nonzero;fill:rgb(0%,0%,0%);fill-opacity:1;" d="M 30.289062 11.53125 L 31.316406 11.054688 C 30.089844 8.429688 28.152344 6.222656 25.710938 4.65625 L 25.101562 5.605469 C 27.363281 7.054688 29.15625 9.105469 30.289062 11.53125 Z M 30.289062 11.53125 "/>
</g>
</svg>
