<?xml version="1.0" encoding="UTF-8"?>
<svg xmlns="http://www.w3.org/2000/svg" xmlns:xlink="http://www.w3.org/1999/xlink" width="20pt" height="20pt" viewBox="0 0 20 20" version="1.1">
<g id="surface1">
<path style=" stroke:none;fill-rule:nonzero;fill:rgb(34.117647%,40%,79.607843%);fill-opacity:1;" d="M 19.707031 5.183594 L 19.707031 7.039062 L 10.566406 9.492188 L 0.292969 7.039062 L 0.292969 5.183594 C 0.292969 4.015625 1.238281 3.070312 2.40625 3.070312 L 17.59375 3.070312 C 18.761719 3.070312 19.707031 4.015625 19.707031 5.183594 Z M 19.707031 5.183594 "/>
<path style=" stroke:none;fill-rule:nonzero;fill:rgb(23.921569%,30.980392%,76.470588%);fill-opacity:1;" d="M 3.816406 3.070312 C 2.652344 3.070312 1.707031 4.015625 1.707031 5.183594 L 1.707031 7.707031 L 0.292969 7.039062 L 0.292969 5.183594 C 0.292969 4.015625 1.238281 3.070312 2.40625 3.070312 Z M 3.816406 3.070312 "/>
<path style=" stroke:none;fill-rule:nonzero;fill:rgb(94.509804%,94.509804%,95.686275%);fill-opacity:1;" d="M 19.707031 7.039062 L 19.707031 17.128906 C 19.707031 18.296875 18.761719 19.242188 17.59375 19.242188 L 2.40625 19.242188 C 1.238281 19.242188 0.292969 18.296875 0.292969 17.128906 L 0.292969 7.039062 Z M 19.707031 7.039062 "/>
<path style=" stroke:none;fill-rule:nonzero;fill:rgb(86.666667%,85.490196%,92.54902%);fill-opacity:1;" d="M 3.816406 19.242188 L 2.40625 19.242188 C 1.238281 19.242188 0.292969 18.296875 0.292969 17.128906 L 0.292969 7.039062 L 1.707031 7.039062 L 1.707031 17.128906 C 1.707031 18.296875 2.652344 19.242188 3.816406 19.242188 Z M 3.816406 19.242188 "/>
<path style=" stroke:none;fill-rule:nonzero;fill:rgb(100%,87.843137%,49.019608%);fill-opacity:1;" d="M 16.492188 3.070312 L 16.492188 2.292969 C 16.492188 2.09375 16.328125 1.929688 16.128906 1.929688 C 15.929688 1.929688 15.769531 2.09375 15.769531 2.292969 L 15.769531 3.710938 C 15.769531 3.910156 15.929688 4.074219 16.128906 4.074219 C 16.453125 4.074219 16.714844 4.335938 16.714844 4.660156 C 16.714844 4.980469 16.453125 5.246094 16.128906 5.246094 C 15.285156 5.246094 14.597656 4.554688 14.597656 3.710938 L 14.597656 2.292969 C 14.597656 1.445312 15.285156 0.757812 16.128906 0.757812 C 16.976562 0.757812 17.664062 1.445312 17.664062 2.292969 L 17.664062 3.070312 "/>
<path style=" stroke:none;fill-rule:nonzero;fill:rgb(100%,87.843137%,49.019608%);fill-opacity:1;" d="M 12.460938 3.070312 L 12.460938 2.292969 C 12.460938 2.09375 12.300781 1.929688 12.101562 1.929688 C 11.902344 1.929688 11.738281 2.09375 11.738281 2.292969 L 11.738281 3.710938 C 11.738281 3.910156 11.902344 4.074219 12.101562 4.074219 C 12.421875 4.074219 12.6875 4.335938 12.6875 4.660156 C 12.6875 4.980469 12.421875 5.246094 12.101562 5.246094 C 11.253906 5.246094 10.566406 4.554688 10.566406 3.710938 L 10.566406 2.292969 C 10.566406 1.445312 11.253906 0.757812 12.101562 0.757812 C 12.945312 0.757812 13.632812 1.445312 13.632812 2.292969 L 13.632812 3.070312 "/>
<path style=" stroke:none;fill-rule:nonzero;fill:rgb(100%,87.843137%,49.019608%);fill-opacity:1;" d="M 8.433594 3.070312 L 8.433594 2.292969 C 8.433594 2.09375 8.269531 1.929688 8.070312 1.929688 C 7.871094 1.929688 7.707031 2.09375 7.707031 2.292969 L 7.707031 3.710938 C 7.707031 3.910156 7.871094 4.074219 8.070312 4.074219 C 8.394531 4.074219 8.65625 4.335938 8.65625 4.660156 C 8.65625 4.980469 8.394531 5.246094 8.070312 5.246094 C 7.226562 5.246094 6.535156 4.554688 6.535156 3.710938 L 6.535156 2.292969 C 6.535156 1.445312 7.226562 0.757812 8.070312 0.757812 C 8.917969 0.757812 9.605469 1.445312 9.605469 2.292969 L 9.605469 3.070312 "/>
<path style=" stroke:none;fill-rule:nonzero;fill:rgb(100%,87.843137%,49.019608%);fill-opacity:1;" d="M 4.402344 3.070312 L 4.402344 2.292969 C 4.402344 2.09375 4.242188 1.929688 4.042969 1.929688 C 3.839844 1.929688 3.679688 2.09375 3.679688 2.292969 L 3.679688 3.710938 C 3.679688 3.910156 3.839844 4.074219 4.042969 4.074219 C 4.363281 4.074219 4.628906 4.335938 4.628906 4.660156 C 4.628906 4.980469 4.363281 5.246094 4.042969 5.246094 C 3.195312 5.246094 2.507812 4.554688 2.507812 3.710938 L 2.507812 2.292969 C 2.507812 1.445312 3.195312 0.757812 4.042969 0.757812 C 4.886719 0.757812 5.574219 1.445312 5.574219 2.292969 L 5.574219 3.070312 "/>
<path style=" stroke:none;fill-rule:nonzero;fill:rgb(100%,81.568627%,39.215686%);fill-opacity:1;" d="M 4.042969 1.402344 C 3.195312 1.402344 2.507812 2.089844 2.507812 2.9375 L 2.507812 2.292969 C 2.507812 1.445312 3.195312 0.757812 4.042969 0.757812 C 4.886719 0.757812 5.574219 1.445312 5.574219 2.292969 L 5.574219 2.9375 C 5.574219 2.089844 4.886719 1.402344 4.042969 1.402344 Z M 4.042969 1.402344 "/>
<path style=" stroke:none;fill-rule:nonzero;fill:rgb(100%,81.568627%,39.215686%);fill-opacity:1;" d="M 8.070312 1.402344 C 7.226562 1.402344 6.539062 2.089844 6.539062 2.9375 L 6.539062 2.292969 C 6.539062 1.445312 7.226562 0.757812 8.070312 0.757812 C 8.917969 0.757812 9.605469 1.445312 9.605469 2.292969 L 9.605469 2.9375 C 9.605469 2.089844 8.917969 1.402344 8.070312 1.402344 Z M 8.070312 1.402344 "/>
<path style=" stroke:none;fill-rule:nonzero;fill:rgb(100%,81.568627%,39.215686%);fill-opacity:1;" d="M 12.101562 1.402344 C 11.253906 1.402344 10.566406 2.089844 10.566406 2.9375 L 10.566406 2.292969 C 10.566406 1.445312 11.253906 0.757812 12.101562 0.757812 C 12.945312 0.757812 13.632812 1.445312 13.632812 2.292969 L 13.632812 2.9375 C 13.632812 2.089844 12.945312 1.402344 12.101562 1.402344 Z M 12.101562 1.402344 "/>
<path style=" stroke:none;fill-rule:nonzero;fill:rgb(100%,81.568627%,39.215686%);fill-opacity:1;" d="M 16.128906 1.402344 C 15.285156 1.402344 14.597656 2.089844 14.597656 2.9375 L 14.597656 2.292969 C 14.597656 1.445312 15.285156 0.757812 16.128906 0.757812 C 16.976562 0.757812 17.664062 1.445312 17.664062 2.292969 L 17.664062 2.9375 C 17.664062 2.089844 16.976562 1.402344 16.128906 1.402344 Z M 16.128906 1.402344 "/>
<path style=" stroke:none;fill-rule:nonzero;fill:rgb(86.666667%,38.823529%,43.137255%);fill-opacity:1;" d="M 8.628906 15.535156 C 7.992188 15.542969 7.320312 15.550781 6.734375 15.550781 C 7.121094 15.035156 7.632812 14.332031 8.296875 13.378906 C 8.761719 12.71875 9.0625 12.09375 9.195312 11.519531 C 9.21875 11.390625 9.25 11.164062 9.253906 11.035156 C 9.253906 9.527344 8.027344 8.304688 6.519531 8.304688 C 5.21875 8.304688 4.089844 9.230469 3.839844 10.507812 C 3.742188 11.003906 4.066406 11.484375 4.558594 11.582031 C 5.054688 11.679688 5.535156 11.355469 5.632812 10.859375 C 5.714844 10.4375 6.089844 10.128906 6.519531 10.128906 C 7.003906 10.128906 7.402344 10.511719 7.425781 10.988281 L 7.40625 11.144531 C 7.320312 11.476562 7.113281 11.886719 6.800781 12.332031 C 5.675781 13.9375 5.003906 14.816406 4.644531 15.289062 C 4.488281 15.496094 4.382812 15.632812 4.308594 15.738281 C 4.21875 15.871094 3.976562 16.226562 4.117188 16.683594 C 4.207031 16.980469 4.429688 17.207031 4.730469 17.304688 C 4.855469 17.347656 4.960938 17.382812 6.332031 17.382812 C 6.878906 17.382812 7.625 17.375 8.652344 17.363281 C 9.160156 17.359375 9.5625 16.941406 9.554688 16.4375 C 9.550781 15.933594 9.136719 15.53125 8.628906 15.535156 Z M 8.628906 15.535156 "/>
<path style=" stroke:none;fill-rule:nonzero;fill:rgb(86.666667%,38.823529%,43.137255%);fill-opacity:1;" d="M 13.3125 11.441406 C 13.285156 11.441406 13.253906 11.445312 13.222656 11.445312 C 13.777344 10.621094 14.339844 10.179688 14.359375 10.164062 C 14.761719 9.863281 14.84375 9.292969 14.542969 8.890625 C 14.242188 8.484375 13.667969 8.398438 13.265625 8.699219 C 13.164062 8.777344 10.789062 10.578125 10.378906 13.957031 C 10.355469 14.105469 10.34375 14.257812 10.34375 14.414062 C 10.34375 16.050781 11.675781 17.382812 13.3125 17.382812 C 14.953125 17.382812 16.285156 16.050781 16.285156 14.414062 C 16.285156 12.773438 14.953125 11.441406 13.3125 11.441406 Z M 13.3125 15.554688 C 12.683594 15.554688 12.171875 15.042969 12.171875 14.414062 C 12.171875 13.78125 12.683594 13.269531 13.3125 13.269531 C 13.945312 13.269531 14.457031 13.78125 14.457031 14.414062 C 14.457031 15.042969 13.945312 15.554688 13.3125 15.554688 Z M 13.3125 15.554688 "/>
<path style=" stroke:none;fill-rule:nonzero;fill:rgb(85.490196%,29.019608%,32.941176%);fill-opacity:1;" d="M 5.503906 17.304688 C 5.203125 17.207031 4.980469 16.980469 4.886719 16.683594 C 4.746094 16.226562 4.992188 15.871094 5.082031 15.738281 C 5.15625 15.632812 5.257812 15.496094 5.417969 15.289062 C 5.777344 14.816406 6.449219 13.9375 7.574219 12.332031 C 7.882812 11.886719 8.09375 11.476562 8.179688 11.144531 L 8.199219 10.988281 C 8.171875 10.511719 7.777344 10.128906 7.292969 10.128906 C 7.15625 10.128906 7.023438 10.164062 6.90625 10.21875 C 7.199219 10.355469 7.40625 10.648438 7.425781 10.988281 L 7.40625 11.144531 C 7.320312 11.476562 7.113281 11.886719 6.800781 12.332031 C 5.675781 13.9375 5.003906 14.816406 4.644531 15.289062 C 4.488281 15.496094 4.382812 15.632812 4.308594 15.738281 C 4.21875 15.871094 3.976562 16.226562 4.117188 16.683594 C 4.207031 16.980469 4.429688 17.207031 4.730469 17.304688 C 4.855469 17.347656 4.960938 17.382812 6.332031 17.382812 C 6.460938 17.382812 6.597656 17.382812 6.746094 17.382812 C 5.710938 17.375 5.613281 17.34375 5.503906 17.304688 Z M 5.503906 17.304688 "/>
<path style=" stroke:none;fill-rule:nonzero;fill:rgb(85.490196%,29.019608%,32.941176%);fill-opacity:1;" d="M 4.558594 11.582031 C 4.757812 11.621094 4.953125 11.589844 5.121094 11.511719 C 4.75 11.339844 4.53125 10.929688 4.613281 10.507812 C 4.839844 9.359375 5.773438 8.492188 6.90625 8.332031 C 6.78125 8.3125 6.652344 8.304688 6.519531 8.304688 C 5.21875 8.304688 4.089844 9.230469 3.839844 10.507812 C 3.742188 11.003906 4.066406 11.484375 4.558594 11.582031 Z M 4.558594 11.582031 "/>
<path style=" stroke:none;fill-rule:nonzero;fill:rgb(85.490196%,29.019608%,32.941176%);fill-opacity:1;" d="M 13.699219 15.488281 C 13.820312 15.53125 13.953125 15.554688 14.085938 15.554688 C 14.71875 15.554688 15.230469 15.042969 15.230469 14.414062 C 15.230469 13.78125 14.71875 13.269531 14.085938 13.269531 C 13.953125 13.269531 13.820312 13.292969 13.699219 13.335938 C 14.140625 13.496094 14.457031 13.917969 14.457031 14.414062 C 14.457031 14.90625 14.140625 15.328125 13.699219 15.488281 Z M 13.699219 15.488281 "/>
<path style=" stroke:none;fill-rule:nonzero;fill:rgb(85.490196%,29.019608%,32.941176%);fill-opacity:1;" d="M 11.117188 14.414062 C 11.117188 14.257812 11.128906 14.105469 11.152344 13.957031 C 11.5625 10.578125 13.9375 8.777344 14.039062 8.699219 C 14.089844 8.664062 14.140625 8.632812 14.195312 8.605469 C 13.902344 8.46875 13.542969 8.492188 13.265625 8.699219 C 13.164062 8.777344 10.789062 10.578125 10.378906 13.957031 C 10.355469 14.105469 10.34375 14.257812 10.34375 14.414062 C 10.34375 16.050781 11.675781 17.382812 13.3125 17.382812 C 13.445312 17.382812 13.574219 17.371094 13.699219 17.355469 C 12.246094 17.167969 11.117188 15.917969 11.117188 14.414062 Z M 11.117188 14.414062 "/>
<path style=" stroke:none;fill-rule:nonzero;fill:rgb(0%,0%,0%);fill-opacity:1;" d="M 17.957031 2.804688 L 17.957031 2.292969 C 17.957031 1.285156 17.136719 0.464844 16.128906 0.464844 C 15.121094 0.464844 14.304688 1.285156 14.304688 2.292969 L 14.304688 2.777344 L 13.925781 2.777344 L 13.925781 2.292969 C 13.925781 1.285156 13.109375 0.464844 12.101562 0.464844 C 11.09375 0.464844 10.273438 1.285156 10.273438 2.292969 L 10.273438 2.777344 L 9.898438 2.777344 L 9.898438 2.292969 C 9.898438 1.285156 9.078125 0.464844 8.070312 0.464844 C 7.0625 0.464844 6.242188 1.285156 6.242188 2.292969 L 6.242188 2.777344 L 5.867188 2.777344 L 5.867188 2.292969 C 5.867188 1.285156 5.046875 0.464844 4.042969 0.464844 C 3.035156 0.464844 2.214844 1.285156 2.214844 2.292969 L 2.214844 2.785156 C 0.976562 2.882812 0 3.921875 0 5.183594 L 0 17.128906 C 0 18.453125 1.078125 19.535156 2.40625 19.535156 L 17.007812 19.535156 C 17.171875 19.535156 17.300781 19.402344 17.300781 19.242188 C 17.300781 19.078125 17.171875 18.949219 17.007812 18.949219 L 2.40625 18.949219 C 1.402344 18.949219 0.585938 18.132812 0.585938 17.128906 L 0.585938 7.332031 L 19.414062 7.332031 L 19.414062 17.128906 C 19.414062 17.9375 18.871094 18.65625 18.09375 18.878906 C 17.9375 18.921875 17.847656 19.085938 17.894531 19.242188 C 17.929688 19.371094 18.046875 19.453125 18.175781 19.453125 C 18.203125 19.453125 18.226562 19.449219 18.253906 19.441406 C 19.28125 19.148438 20 18.199219 20 17.128906 L 20 5.183594 C 20 3.980469 19.113281 2.980469 17.957031 2.804688 Z M 14.890625 2.292969 C 14.890625 1.609375 15.445312 1.050781 16.128906 1.050781 C 16.8125 1.050781 17.371094 1.609375 17.371094 2.292969 L 17.371094 2.777344 L 16.785156 2.777344 L 16.785156 2.292969 C 16.785156 1.929688 16.492188 1.636719 16.128906 1.636719 C 15.769531 1.636719 15.476562 1.929688 15.476562 2.292969 L 15.476562 3.710938 C 15.476562 4.070312 15.769531 4.367188 16.128906 4.367188 C 16.292969 4.367188 16.421875 4.496094 16.421875 4.660156 C 16.421875 4.820312 16.292969 4.953125 16.128906 4.953125 C 15.445312 4.953125 14.890625 4.394531 14.890625 3.710938 Z M 16.199219 2.777344 L 16.0625 2.777344 L 16.0625 2.292969 C 16.0625 2.253906 16.09375 2.222656 16.128906 2.222656 C 16.167969 2.222656 16.199219 2.253906 16.199219 2.292969 Z M 10.859375 2.292969 C 10.859375 1.609375 11.417969 1.050781 12.101562 1.050781 C 12.785156 1.050781 13.339844 1.609375 13.339844 2.292969 L 13.339844 2.777344 L 12.753906 2.777344 L 12.753906 2.292969 C 12.753906 1.929688 12.460938 1.636719 12.101562 1.636719 C 11.738281 1.636719 11.445312 1.929688 11.445312 2.292969 L 11.445312 3.066406 C 11.445312 3.066406 11.445312 3.070312 11.445312 3.070312 L 11.445312 3.710938 C 11.445312 4.070312 11.738281 4.367188 12.101562 4.367188 C 12.261719 4.367188 12.394531 4.496094 12.394531 4.660156 C 12.394531 4.820312 12.261719 4.953125 12.101562 4.953125 C 11.417969 4.953125 10.859375 4.394531 10.859375 3.710938 Z M 12.167969 2.777344 L 12.03125 2.777344 L 12.03125 2.292969 C 12.03125 2.253906 12.0625 2.222656 12.101562 2.222656 C 12.136719 2.222656 12.167969 2.253906 12.167969 2.292969 Z M 6.828125 2.292969 C 6.828125 1.609375 7.386719 1.050781 8.070312 1.050781 C 8.753906 1.050781 9.3125 1.609375 9.3125 2.292969 L 9.3125 2.777344 L 8.726562 2.777344 L 8.726562 2.292969 C 8.726562 1.929688 8.433594 1.636719 8.070312 1.636719 C 7.710938 1.636719 7.414062 1.929688 7.414062 2.292969 L 7.414062 3.066406 C 7.414062 3.066406 7.414062 3.070312 7.414062 3.070312 C 7.414062 3.070312 7.414062 3.070312 7.414062 3.074219 L 7.414062 3.710938 C 7.414062 4.070312 7.710938 4.367188 8.070312 4.367188 C 8.230469 4.367188 8.363281 4.496094 8.363281 4.660156 C 8.363281 4.820312 8.230469 4.953125 8.070312 4.953125 C 7.386719 4.953125 6.828125 4.394531 6.828125 3.710938 Z M 8.140625 2.777344 L 8 2.777344 L 8 2.292969 C 8 2.253906 8.03125 2.222656 8.070312 2.222656 C 8.109375 2.222656 8.140625 2.253906 8.140625 2.292969 Z M 4.042969 1.050781 C 4.726562 1.050781 5.28125 1.609375 5.28125 2.292969 L 5.28125 2.777344 L 4.695312 2.777344 L 4.695312 2.292969 C 4.695312 1.929688 4.402344 1.636719 4.042969 1.636719 C 3.679688 1.636719 3.386719 1.929688 3.386719 2.292969 L 3.386719 3.710938 C 3.386719 4.070312 3.679688 4.367188 4.042969 4.367188 C 4.203125 4.367188 4.335938 4.496094 4.335938 4.660156 C 4.335938 4.820312 4.203125 4.953125 4.042969 4.953125 C 3.355469 4.953125 2.800781 4.394531 2.800781 3.710938 L 2.800781 3.074219 C 2.800781 3.074219 2.800781 3.070312 2.800781 3.070312 C 2.800781 3.066406 2.800781 3.066406 2.800781 3.0625 L 2.800781 2.292969 C 2.800781 1.609375 3.355469 1.050781 4.042969 1.050781 Z M 4.109375 2.777344 L 3.972656 2.777344 L 3.972656 2.292969 C 3.972656 2.253906 4.003906 2.222656 4.042969 2.222656 C 4.078125 2.222656 4.109375 2.253906 4.109375 2.292969 Z M 0.585938 6.746094 L 0.585938 5.183594 C 0.585938 4.242188 1.300781 3.46875 2.214844 3.371094 L 2.214844 3.710938 C 2.214844 4.71875 3.035156 5.539062 4.042969 5.539062 C 4.527344 5.539062 4.921875 5.144531 4.921875 4.660156 C 4.921875 4.171875 4.527344 3.78125 4.042969 3.78125 C 4.003906 3.78125 3.972656 3.75 3.972656 3.710938 L 3.972656 3.363281 L 6.242188 3.363281 L 6.242188 3.710938 C 6.242188 4.71875 7.0625 5.539062 8.070312 5.539062 C 8.554688 5.539062 8.949219 5.144531 8.949219 4.660156 C 8.949219 4.171875 8.554688 3.78125 8.070312 3.78125 C 8.03125 3.78125 8 3.75 8 3.710938 L 8 3.363281 L 10.273438 3.363281 L 10.273438 3.710938 C 10.273438 4.71875 11.09375 5.539062 12.101562 5.539062 C 12.585938 5.539062 12.980469 5.144531 12.980469 4.660156 C 12.980469 4.171875 12.585938 3.78125 12.101562 3.78125 C 12.0625 3.78125 12.03125 3.75 12.03125 3.710938 L 12.03125 3.363281 L 14.304688 3.363281 L 14.304688 3.710938 C 14.304688 4.71875 15.121094 5.539062 16.128906 5.539062 C 16.613281 5.539062 17.007812 5.144531 17.007812 4.660156 C 17.007812 4.171875 16.613281 3.78125 16.128906 3.78125 C 16.09375 3.78125 16.0625 3.75 16.0625 3.710938 L 16.0625 3.363281 L 17.59375 3.363281 C 18.597656 3.363281 19.414062 4.179688 19.414062 5.183594 L 19.414062 6.746094 Z M 0.585938 6.746094 "/>
<path style=" stroke:none;fill-rule:nonzero;fill:rgb(0%,0%,0%);fill-opacity:1;" d="M 6.5625 12.164062 C 5.441406 13.765625 4.773438 14.640625 4.410156 15.113281 C 4.25 15.324219 4.144531 15.460938 4.066406 15.574219 C 3.964844 15.722656 3.652344 16.175781 3.835938 16.769531 C 3.953125 17.15625 4.246094 17.453125 4.636719 17.582031 C 4.800781 17.640625 4.910156 17.675781 6.332031 17.675781 C 6.910156 17.675781 7.671875 17.667969 8.65625 17.65625 C 9.324219 17.648438 9.855469 17.101562 9.847656 16.433594 C 9.839844 15.773438 9.300781 15.242188 8.640625 15.242188 C 8.636719 15.242188 8.632812 15.242188 8.625 15.242188 C 8.199219 15.25 7.75 15.253906 7.316406 15.253906 C 7.703125 14.730469 8.105469 14.167969 8.539062 13.546875 C 9.023438 12.855469 9.339844 12.195312 9.480469 11.585938 C 9.511719 11.429688 9.542969 11.195312 9.546875 11.035156 C 9.546875 10.640625 9.472656 10.253906 9.324219 9.890625 C 9.261719 9.742188 9.089844 9.671875 8.941406 9.730469 C 8.789062 9.792969 8.71875 9.964844 8.78125 10.113281 C 8.902344 10.40625 8.960938 10.714844 8.960938 11.035156 C 8.957031 11.132812 8.929688 11.355469 8.910156 11.453125 C 8.785156 11.988281 8.5 12.582031 8.058594 13.210938 C 7.492188 14.015625 6.984375 14.726562 6.5 15.375 C 6.433594 15.464844 6.425781 15.585938 6.476562 15.683594 C 6.523438 15.78125 6.625 15.84375 6.738281 15.84375 C 7.332031 15.84375 8.003906 15.835938 8.632812 15.828125 C 8.636719 15.828125 8.640625 15.828125 8.640625 15.828125 C 8.980469 15.828125 9.257812 16.101562 9.261719 16.441406 C 9.265625 16.785156 8.992188 17.066406 8.648438 17.070312 C 7.667969 17.082031 6.90625 17.089844 6.332031 17.089844 C 5.007812 17.089844 4.90625 17.054688 4.824219 17.027344 C 4.613281 16.957031 4.457031 16.800781 4.394531 16.597656 C 4.296875 16.273438 4.46875 16.023438 4.550781 15.90625 C 4.621094 15.804688 4.71875 15.671875 4.878906 15.464844 C 5.238281 14.992188 5.914062 14.109375 7.039062 12.5 C 7.371094 12.027344 7.59375 11.585938 7.6875 11.21875 C 7.699219 11.160156 7.71875 11.03125 7.71875 10.972656 C 7.683594 10.335938 7.160156 9.835938 6.519531 9.835938 C 5.949219 9.835938 5.457031 10.242188 5.34375 10.804688 C 5.28125 11.140625 4.953125 11.359375 4.617188 11.292969 C 4.453125 11.261719 4.3125 11.167969 4.21875 11.03125 C 4.128906 10.890625 4.09375 10.726562 4.125 10.5625 C 4.351562 9.425781 5.359375 8.597656 6.519531 8.597656 C 7.140625 8.597656 7.734375 8.832031 8.1875 9.257812 C 8.304688 9.367188 8.492188 9.359375 8.601562 9.242188 C 8.714844 9.125 8.707031 8.9375 8.589844 8.828125 C 8.027344 8.300781 7.292969 8.011719 6.519531 8.011719 C 5.078125 8.011719 3.828125 9.035156 3.550781 10.453125 C 3.488281 10.765625 3.554688 11.089844 3.734375 11.355469 C 3.914062 11.625 4.1875 11.804688 4.503906 11.867188 C 5.15625 11.996094 5.792969 11.570312 5.921875 10.917969 C 5.976562 10.628906 6.230469 10.421875 6.519531 10.421875 C 6.839844 10.421875 7.101562 10.667969 7.132812 10.980469 L 7.117188 11.089844 C 7.039062 11.386719 6.84375 11.757812 6.5625 12.164062 Z M 6.5625 12.164062 "/>
<path style=" stroke:none;fill-rule:nonzero;fill:rgb(0%,0%,0%);fill-opacity:1;" d="M 14.535156 10.398438 C 15.066406 10 15.175781 9.246094 14.777344 8.714844 C 14.585938 8.457031 14.304688 8.285156 13.984375 8.238281 C 13.667969 8.191406 13.347656 8.273438 13.089844 8.464844 C 12.984375 8.542969 10.515625 10.417969 10.089844 13.917969 C 10.0625 14.082031 10.050781 14.246094 10.050781 14.414062 C 10.050781 16.210938 11.515625 17.675781 13.3125 17.675781 C 15.113281 17.675781 16.578125 16.210938 16.578125 14.414062 C 16.578125 12.769531 15.359375 11.40625 13.777344 11.183594 C 14.1875 10.671875 14.53125 10.402344 14.535156 10.398438 Z M 12.980469 11.28125 C 12.917969 11.371094 12.914062 11.488281 12.964844 11.585938 C 13.019531 11.683594 13.121094 11.742188 13.230469 11.738281 L 13.253906 11.738281 C 13.273438 11.734375 13.292969 11.734375 13.3125 11.734375 C 14.789062 11.734375 15.992188 12.9375 15.992188 14.414062 C 15.992188 15.886719 14.789062 17.089844 13.3125 17.089844 C 11.839844 17.089844 10.636719 15.886719 10.636719 14.414062 C 10.636719 14.273438 10.648438 14.136719 10.667969 14 C 10.667969 14 10.667969 13.996094 10.671875 13.992188 C 11.066406 10.734375 13.34375 9.007812 13.441406 8.9375 C 13.546875 8.855469 13.675781 8.8125 13.808594 8.8125 C 13.839844 8.8125 13.871094 8.816406 13.898438 8.820312 C 14.0625 8.84375 14.210938 8.929688 14.308594 9.0625 C 14.511719 9.335938 14.457031 9.726562 14.179688 9.933594 C 14.15625 9.953125 13.5625 10.410156 12.980469 11.28125 Z M 12.980469 11.28125 "/>
<path style=" stroke:none;fill-rule:nonzero;fill:rgb(0%,0%,0%);fill-opacity:1;" d="M 11.878906 14.414062 C 11.878906 15.203125 12.523438 15.847656 13.3125 15.847656 C 14.105469 15.847656 14.75 15.203125 14.75 14.414062 C 14.75 13.621094 14.105469 12.976562 13.3125 12.976562 C 12.523438 12.976562 11.878906 13.621094 11.878906 14.414062 Z M 13.3125 13.5625 C 13.78125 13.5625 14.164062 13.945312 14.164062 14.414062 C 14.164062 14.878906 13.78125 15.261719 13.3125 15.261719 C 12.847656 15.261719 12.464844 14.878906 12.464844 14.414062 C 12.464844 13.945312 12.847656 13.5625 13.3125 13.5625 Z M 13.3125 13.5625 "/>
</g>
</svg>
